Mozilla Headline-ExtraLight Italic.ufo
<glyph name="numbersign" format="1">
  <advance width="630"/>
  <unicode hex="0023"/>
  <outline>
    <contour>
      <point x="68" y="0" type="line"/>
      <point x="123" y="0" type="line"/>
      <point x="354" y="690" type="line"/>
      <point x="299" y="690" type="line"/>
    </contour>
    <contour>
      <point x="301" y="0" type="line"/>
      <point x="357" y="0" type="line"/>
      <point x="588" y="690" type="line"/>
      <point x="532" y="690" type="line"/>
    </contour>
    <contour>
      <point x="118" y="438" type="line"/>
      <point x="606" y="438" type="line"/>
      <point x="614" y="489" type="line"/>
      <point x="126" y="489" type="line"/>
    </contour>
    <contour>
      <point x="42" y="201" type="line"/>
      <point x="530" y="201" type="line"/>
      <point x="538" y="252" type="line"/>
      <point x="50" y="252" type="line"/>
    </contour>
  </outline>
</glyph>
<glyph name="percent" format="1">
  <advance width="782"/>
  <unicode hex="0025"/>
  <outline>
    <contour>
      <point x="50" y="0" type="line"/>
      <point x="117" y="0" type="line"/>
      <point x="395" y="322" type="line"/>
      <point x="327" y="322" type="line"/>
    </contour>
    <contour>
      <point x="413" y="368" type="line"/>
      <point x="480" y="368" type="line"/>
      <point x="758" y="690" type="line"/>
      <point x="690" y="690" type="line"/>
    </contour>
    <contour>
      <point x="250" y="360" type="curve" smooth="yes"/>
      <point x="359" y="360"/>
      <point x="424" y="429"/>
      <point x="439" y="520" type="curve" smooth="yes"/>
      <point x="457" y="629"/>
      <point x="393" y="700"/>
      <point x="281" y="700" type="curve" smooth="yes"/>
      <point x="171" y="700"/>
      <point x="107" y="631"/>
      <point x="91" y="540" type="curve" smooth="yes"/>
      <point x="74" y="431"/>
      <point x="137" y="360"/>
    </contour>
    <contour>
      <point x="251" y="410" type="curve" smooth="yes"/>
      <point x="172" y="410"/>
      <point x="135" y="452"/>
      <point x="147" y="522" type="curve" smooth="yes"/>
      <point x="151" y="544" type="line" smooth="yes"/>
      <point x="163" y="614"/>
      <point x="199" y="650"/>
      <point x="279" y="650" type="curve" smooth="yes"/>
      <point x="359" y="650"/>
      <point x="395" y="608"/>
      <point x="383" y="538" type="curve" smooth="yes"/>
      <point x="380" y="516" type="line" smooth="yes"/>
      <point x="368" y="446"/>
      <point x="331" y="410"/>
    </contour>
    <contour>
      <point x="527" y="-10" type="curve" smooth="yes"/>
      <point x="636" y="-10"/>
      <point x="701" y="59"/>
      <point x="716" y="150" type="curve" smooth="yes"/>
      <point x="735" y="259"/>
      <point x="670" y="330"/>
      <point x="558" y="330" type="curve" smooth="yes"/>
      <point x="448" y="330"/>
      <point x="384" y="261"/>
      <point x="369" y="170" type="curve" smooth="yes"/>
      <point x="351" y="61"/>
      <point x="414" y="-10"/>
    </contour>
    <contour>
      <point x="529" y="40" type="curve" smooth="yes"/>
      <point x="449" y="40"/>
      <point x="413" y="82"/>
      <point x="424" y="152" type="curve" smooth="yes"/>
      <point x="428" y="174" type="line" smooth="yes"/>
      <point x="440" y="244"/>
      <point x="477" y="280"/>
      <point x="556" y="280" type="curve" smooth="yes"/>
      <point x="636" y="280"/>
      <point x="672" y="238"/>
      <point x="661" y="168" type="curve" smooth="yes"/>
      <point x="657" y="146" type="line" smooth="yes"/>
      <point x="645" y="76"/>
      <point x="608" y="40"/>
    </contour>
  </outline>
</glyph>
<glyph name="parenleft" format="1">
  <advance width="306"/>
  <unicode hex="0028"/>
  <outline>
    <contour>
      <point x="165" y="-92" type="curve"/>
      <point x="226" y="-92" type="line"/>
      <point x="126" y="45"/>
      <point x="105" y="151"/>
      <point x="131" y="319" type="curve" smooth="yes"/>
      <point x="139" y="371" type="line" smooth="yes"/>
      <point x="165" y="539"/>
      <point x="227" y="645"/>
      <point x="372" y="782" type="curve"/>
      <point x="304" y="782" type="line"/>
      <point x="176" y="672"/>
      <point x="105" y="542"/>
      <point x="74" y="352" type="curve" smooth="yes"/>
      <point x="42" y="161"/>
      <point x="69" y="26"/>
    </contour>
  </outline>
</glyph>
<glyph name="asterisk" format="1">
  <advance width="436"/>
  <unicode hex="002A"/>
  <outline>
    <contour>
      <point x="115" y="561" type="line"/>
      <point x="176" y="539" type="line"/>
      <point x="235" y="534" type="line"/>
      <point x="236" y="527" type="line"/>
      <point x="183" y="492" type="line"/>
      <point x="133" y="436" type="line"/>
      <point x="174" y="400" type="line"/>
      <point x="223" y="456" type="line"/>
      <point x="255" y="511" type="line"/>
      <point x="263" y="511" type="line"/>
      <point x="275" y="455" type="line"/>
      <point x="306" y="400" type="line"/>
      <point x="357" y="430" type="line"/>
      <point x="326" y="486" type="line"/>
      <point x="286" y="527" type="line"/>
      <point x="289" y="534" type="line"/>
      <point x="350" y="534" type="line"/>
      <point x="419" y="556" type="line"/>
      <point x="411" y="612" type="line"/>
      <point x="341" y="591" type="line"/>
      <point x="286" y="558" type="line"/>
      <point x="280" y="562" type="line"/>
      <point x="306" y="621" type="line"/>
      <point x="317" y="690" type="line"/>
      <point x="260" y="690" type="line"/>
      <point x="249" y="621" type="line"/>
      <point x="254" y="562" type="line"/>
      <point x="248" y="558" type="line"/>
      <point x="203" y="592" type="line"/>
      <point x="140" y="613" type="line"/>
    </contour>
  </outline>
</glyph>
<glyph name="hyphen" format="1">
  <advance width="339"/>
  <unicode hex="002D"/>
  <outline>
    <contour>
      <point x="57" y="259" type="line"/>
      <point x="277" y="259" type="line"/>
      <point x="286" y="309" type="line"/>
      <point x="66" y="309" type="line"/>
    </contour>
  </outline>
</glyph>
<glyph name="zero" format="1">
  <advance width="660"/>
  <unicode hex="0030"/>
  <outline>
    <contour>
      <point x="307" y="-10" type="curve" smooth="yes"/>
      <point x="468" y="-10"/>
      <point x="567" y="93"/>
      <point x="606" y="330" type="curve" smooth="yes"/>
      <point x="647" y="577"/>
      <point x="574" y="700"/>
      <point x="379" y="700" type="curve" smooth="yes"/>
      <point x="219" y="700"/>
      <point x="119" y="597"/>
      <point x="80" y="360" type="curve" smooth="yes"/>
      <point x="38" y="111"/>
      <point x="115" y="-10"/>
    </contour>
    <contour>
      <point x="306" y="47" type="curve" smooth="yes"/>
      <point x="171" y="47"/>
      <point x="108" y="124"/>
      <point x="135" y="286" type="curve" smooth="yes"/>
      <point x="156" y="409" type="line" smooth="yes"/>
      <point x="184" y="572"/>
      <point x="246" y="644"/>
      <point x="381" y="644" type="curve" smooth="yes"/>
      <point x="516" y="644"/>
      <point x="578" y="566"/>
      <point x="551" y="404" type="curve" smooth="yes"/>
      <point x="530" y="281" type="line" smooth="yes"/>
      <point x="503" y="118"/>
      <point x="440" y="47"/>
    </contour>
    <contour>
      <point x="126" y="73" type="line"/>
      <point x="170" y="56" type="line"/>
      <point x="561" y="617" type="line"/>
      <point x="517" y="634" type="line"/>
    </contour>
  </outline>
</glyph>
<glyph name="six" format="1">
  <advance width="621"/>
  <unicode hex="0036"/>
  <outline>
    <contour>
      <point x="296" y="-10" type="curve" smooth="yes"/>
      <point x="438" y="-10"/>
      <point x="528" y="62"/>
      <point x="552" y="207" type="curve" smooth="yes"/>
      <point x="580" y="373"/>
      <point x="482" y="450"/>
      <point x="348" y="450" type="curve" smooth="yes"/>
      <point x="268" y="450"/>
      <point x="204" y="417"/>
      <point x="166" y="354" type="curve"/>
      <point x="145" y="354" type="line"/>
      <point x="157" y="400"/>
      <point x="164" y="429"/>
      <point x="169" y="454" type="curve" smooth="yes"/>
      <point x="170" y="462" type="line" smooth="yes"/>
      <point x="190" y="578"/>
      <point x="252" y="644"/>
      <point x="367" y="644" type="curve" smooth="yes"/>
      <point x="475" y="644"/>
      <point x="529" y="577"/>
      <point x="518" y="506" type="curve" smooth="yes"/>
      <point x="518" y="506" type="line"/>
      <point x="584" y="506" type="line"/>
      <point x="577" y="639"/>
      <point x="508" y="700"/>
      <point x="366" y="700" type="curve" smooth="yes"/>
      <point x="207" y="700"/>
      <point x="123" y="606"/>
      <point x="82" y="360" type="curve" smooth="yes"/>
      <point x="40" y="105"/>
      <point x="95" y="-10"/>
    </contour>
    <contour>
      <point x="295" y="46" type="curve" smooth="yes"/>
      <point x="183" y="46"/>
      <point x="119" y="107"/>
      <point x="138" y="219" type="curve" smooth="yes"/>
      <point x="140" y="232" type="line" smooth="yes"/>
      <point x="159" y="340"/>
      <point x="216" y="396"/>
      <point x="328" y="396" type="curve" smooth="yes"/>
      <point x="445" y="396"/>
      <point x="508" y="338"/>
      <point x="489" y="223" type="curve" smooth="yes"/>
      <point x="487" y="211" type="line" smooth="yes"/>
      <point x="468" y="99"/>
      <point x="412" y="46"/>
    </contour>
  </outline>
</glyph>
<glyph name="eight" format="1">
  <advance width="630"/>
  <unicode hex="0038"/>
  <outline>
    <contour>
      <point x="290" y="-10" type="curve" smooth="yes"/>
      <point x="433" y="-10"/>
      <point x="529" y="51"/>
      <point x="549" y="173" type="curve" smooth="yes"/>
      <point x="565" y="266"/>
      <point x="531" y="327"/>
      <point x="462" y="338" type="curve"/>
      <point x="465" y="359" type="line"/>
      <point x="541" y="370"/>
      <point x="582" y="407"/>
      <point x="596" y="495" type="curve" smooth="yes"/>
      <point x="619" y="635"/>
      <point x="508" y="700"/>
      <point x="366" y="700" type="curve" smooth="yes"/>
      <point x="228" y="700"/>
      <point x="134" y="641"/>
      <point x="114" y="523" type="curve" smooth="yes"/>
      <point x="100" y="435"/>
      <point x="131" y="377"/>
      <point x="197" y="366" type="curve"/>
      <point x="193" y="345" type="line"/>
      <point x="112" y="334"/>
      <point x="70" y="295"/>
      <point x="54" y="202" type="curve" smooth="yes"/>
      <point x="30" y="54"/>
      <point x="151" y="-10"/>
    </contour>
    <contour>
      <point x="290" y="46" type="curve" smooth="yes"/>
      <point x="170" y="46"/>
      <point x="103" y="96"/>
      <point x="117" y="182" type="curve" smooth="yes"/>
      <point x="121" y="205" type="line" smooth="yes"/>
      <point x="136" y="289"/>
      <point x="192" y="328"/>
      <point x="313" y="328" type="curve" smooth="yes"/>
      <point x="433" y="328"/>
      <point x="501" y="278"/>
      <point x="486" y="191" type="curve" smooth="yes"/>
      <point x="482" y="168" type="line" smooth="yes"/>
      <point x="468" y="85"/>
      <point x="411" y="46"/>
    </contour>
    <contour>
      <point x="345" y="376" type="curve" smooth="yes"/>
      <point x="229" y="376"/>
      <point x="164" y="425"/>
      <point x="178" y="508" type="curve" smooth="yes"/>
      <point x="181" y="527" type="line" smooth="yes"/>
      <point x="194" y="607"/>
      <point x="250" y="644"/>
      <point x="366" y="644" type="curve" smooth="yes"/>
      <point x="482" y="644"/>
      <point x="547" y="596"/>
      <point x="533" y="513" type="curve" smooth="yes"/>
      <point x="530" y="494" type="line" smooth="yes"/>
      <point x="517" y="414"/>
      <point x="461" y="376"/>
    </contour>
  </outline>
</glyph>
<glyph name="nine" format="1">
  <advance width="621"/>
  <unicode hex="0039"/>
  <outline>
    <contour>
      <point x="351" y="700" type="curve" smooth="yes"/>
      <point x="210" y="700"/>
      <point x="120" y="629"/>
      <point x="95" y="483" type="curve" smooth="yes"/>
      <point x="68" y="317"/>
      <point x="166" y="240"/>
      <point x="300" y="240" type="curve" smooth="yes"/>
      <point x="379" y="240"/>
      <point x="444" y="273"/>
      <point x="481" y="337" type="curve"/>
      <point x="503" y="337" type="line"/>
      <point x="491" y="290"/>
      <point x="483" y="261"/>
      <point x="479" y="236" type="curve" smooth="yes"/>
      <point x="477" y="228" type="line" smooth="yes"/>
      <point x="458" y="112"/>
      <point x="395" y="46"/>
      <point x="281" y="46" type="curve" smooth="yes"/>
      <point x="172" y="46"/>
      <point x="118" y="113"/>
      <point x="130" y="184" type="curve" smooth="yes"/>
      <point x="130" y="184" type="line"/>
      <point x="63" y="184" type="line"/>
      <point x="71" y="51"/>
      <point x="140" y="-10"/>
      <point x="282" y="-10" type="curve" smooth="yes"/>
      <point x="440" y="-10"/>
      <point x="525" y="85"/>
      <point x="565" y="330" type="curve" smooth="yes"/>
      <point x="608" y="585"/>
      <point x="553" y="700"/>
    </contour>
    <contour>
      <point x="353" y="644" type="curve" smooth="yes"/>
      <point x="465" y="644"/>
      <point x="529" y="583"/>
      <point x="510" y="471" type="curve" smooth="yes"/>
      <point x="508" y="459" type="line" smooth="yes"/>
      <point x="489" y="350"/>
      <point x="431" y="294"/>
      <point x="319" y="294" type="curve" smooth="yes"/>
      <point x="202" y="294"/>
      <point x="139" y="352"/>
      <point x="159" y="467" type="curve" smooth="yes"/>
      <point x="161" y="480" type="line" smooth="yes"/>
      <point x="180" y="591"/>
      <point x="236" y="644"/>
    </contour>
  </outline>
</glyph>
<glyph name="less" format="1">
  <advance width="474"/>
  <unicode hex="003C"/>
  <outline>
    <contour>
      <point x="476" y="543" type="line"/>
      <point x="53" y="375" type="line"/>
      <point x="41" y="299" type="line"/>
      <point x="407" y="131" type="line"/>
      <point x="416" y="184" type="line"/>
      <point x="100" y="324" type="line"/>
      <point x="104" y="345" type="line"/>
      <point x="466" y="485" type="line"/>
    </contour>
  </outline>
</glyph>
<glyph name="question" format="1">
  <advance width="543"/>
  <unicode hex="003F"/>
  <outline>
    <contour>
      <point x="230" y="260" type="curve" smooth="yes"/>
      <point x="219" y="169" type="line"/>
      <point x="255" y="169" type="line"/>
      <point x="270" y="238" type="line" smooth="yes"/>
      <point x="279" y="278"/>
      <point x="304" y="302"/>
      <point x="354" y="316" type="curve" smooth="yes"/>
      <point x="466" y="346"/>
      <point x="517" y="399"/>
      <point x="532" y="489" type="curve" smooth="yes"/>
      <point x="534" y="500" type="line" smooth="yes"/>
      <point x="556" y="632"/>
      <point x="454" y="700"/>
      <point x="323" y="700" type="curve" smooth="yes"/>
      <point x="191" y="700"/>
      <point x="115" y="635"/>
      <point x="74" y="473" type="curve"/>
      <point x="138" y="473" type="line"/>
      <point x="140" y="481" type="line" smooth="yes"/>
      <point x="158" y="586"/>
      <point x="209" y="644"/>
      <point x="320" y="644" type="curve" smooth="yes"/>
      <point x="422" y="644"/>
      <point x="487" y="592"/>
      <point x="472" y="508" type="curve" smooth="yes"/>
      <point x="470" y="494" type="line" smooth="yes"/>
      <point x="460" y="433"/>
      <point x="422" y="396"/>
      <point x="335" y="371" type="curve" smooth="yes"/>
      <point x="270" y="349"/>
      <point x="238" y="316"/>
    </contour>
    <contour>
      <point x="167" y="0" type="line"/>
      <point x="250" y="0" type="line"/>
      <point x="263" y="80" type="line"/>
      <point x="181" y="80" type="line"/>
    </contour>
  </outline>
</glyph>
<glyph name="at" format="1">
  <advance width="842"/>
  <unicode hex="0040"/>
  <outline>
    <contour>
      <point x="372" y="-71" type="curve" smooth="yes"/>
      <point x="642" y="-71" type="line"/>
      <point x="651" y="-18" type="line"/>
      <point x="388" y="-18" type="line" smooth="yes"/>
      <point x="189" y="-18"/>
      <point x="87" y="95"/>
      <point x="120" y="290" type="curve" smooth="yes"/>
      <point x="126" y="329" type="line" smooth="yes"/>
      <point x="159" y="525"/>
      <point x="265" y="626"/>
      <point x="463" y="626" type="curve" smooth="yes"/>
      <point x="662" y="626"/>
      <point x="765" y="514"/>
      <point x="732" y="319" type="curve" smooth="yes"/>
      <point x="726" y="281" type="line" smooth="yes"/>
      <point x="707" y="169"/>
      <point x="669" y="114"/>
      <point x="608" y="114" type="curve" smooth="yes"/>
      <point x="575" y="114"/>
      <point x="561" y="132"/>
      <point x="567" y="171" type="curve" smooth="yes"/>
      <point x="597" y="354" type="line" smooth="yes"/>
      <point x="616" y="475"/>
      <point x="555" y="529"/>
      <point x="448" y="529" type="curve" smooth="yes"/>
      <point x="355" y="529"/>
      <point x="294" y="483"/>
      <point x="265" y="385" type="curve"/>
      <point x="325" y="385" type="line"/>
      <point x="326" y="387" type="line" smooth="yes"/>
      <point x="334" y="438"/>
      <point x="366" y="479"/>
      <point x="446" y="479" type="curve" smooth="yes"/>
      <point x="520" y="479"/>
      <point x="552" y="437"/>
      <point x="539" y="355" type="curve" smooth="yes"/>
      <point x="532" y="313" type="line"/>
      <point x="530" y="302" type="line"/>
      <point x="517" y="225" type="line" smooth="yes"/>
      <point x="504" y="152"/>
      <point x="456" y="114"/>
      <point x="375" y="114" type="curve" smooth="yes"/>
      <point x="307" y="114"/>
      <point x="275" y="144"/>
      <point x="284" y="197" type="curve" smooth="yes"/>
      <point x="285" y="203" type="line" smooth="yes"/>
      <point x="293" y="249"/>
      <point x="329" y="275"/>
      <point x="409" y="279" type="curve" smooth="yes"/>
      <point x="527" y="285" type="line"/>
      <point x="535" y="327" type="line"/>
      <point x="400" y="322" type="line" smooth="yes"/>
      <point x="297" y="317"/>
      <point x="236" y="276"/>
      <point x="223" y="198" type="curve" smooth="yes"/>
      <point x="210" y="120"/>
      <point x="266" y="64"/>
      <point x="357" y="64" type="curve" smooth="yes"/>
      <point x="423" y="64"/>
      <point x="466" y="87"/>
      <point x="495" y="143" type="curve"/>
      <point x="514" y="143" type="line"/>
      <point x="516" y="92"/>
      <point x="546" y="64"/>
      <point x="602" y="64" type="curve" smooth="yes"/>
      <point x="692" y="64"/>
      <point x="760" y="130"/>
      <point x="785" y="283" type="curve" smooth="yes"/>
      <point x="826" y="530"/>
      <point x="697" y="679"/>
      <point x="459" y="679" type="curve" smooth="yes"/>
      <point x="248" y="679"/>
      <point x="104" y="551"/>
      <point x="67" y="325" type="curve" smooth="yes"/>
      <point x="28" y="88"/>
      <point x="145" y="-71"/>
    </contour>
  </outline>
</glyph>
<glyph name="B" format="1">
  <advance width="635"/>
  <unicode hex="0042"/>
  <outline>
    <contour>
      <point x="65" y="0" type="line"/>
      <point x="356" y="0" type="line" smooth="yes"/>
      <point x="470" y="0"/>
      <point x="535" y="56"/>
      <point x="555" y="177" type="curve" smooth="yes"/>
      <point x="571" y="269"/>
      <point x="541" y="328"/>
      <point x="469" y="338" type="curve"/>
      <point x="472" y="359" type="line"/>
      <point x="547" y="369"/>
      <point x="588" y="406"/>
      <point x="602" y="494" type="curve" smooth="yes"/>
      <point x="621" y="611"/>
      <point x="561" y="690"/>
      <point x="449" y="690" type="curve" smooth="yes"/>
      <point x="89" y="690" type="line"/>
      <point x="80" y="637" type="line"/>
      <point x="172" y="637" type="line"/>
    </contour>
    <contour>
      <point x="357" y="53" type="curve" smooth="yes"/>
      <point x="137" y="53" type="line"/>
      <point x="184" y="327" type="line"/>
      <point x="387" y="327" type="line" smooth="yes"/>
      <point x="466" y="327"/>
      <point x="507" y="282"/>
      <point x="494" y="204" type="curve" smooth="yes"/>
      <point x="488" y="170" type="line" smooth="yes"/>
      <point x="475" y="92"/>
      <point x="436" y="53"/>
    </contour>
    <contour>
      <point x="410" y="377" type="curve" smooth="yes"/>
      <point x="192" y="377" type="line"/>
      <point x="236" y="637" type="line"/>
      <point x="437" y="637" type="line" smooth="yes"/>
      <point x="512" y="637"/>
      <point x="552" y="594"/>
      <point x="540" y="518" type="curve" smooth="yes"/>
      <point x="535" y="488" type="line" smooth="yes"/>
      <point x="522" y="415"/>
      <point x="486" y="377"/>
    </contour>
  </outline>
</glyph>
<glyph name="C" format="1">
  <advance width="669"/>
  <unicode hex="0043"/>
  <outline>
    <contour>
      <point x="313" y="-10" type="curve" smooth="yes"/>
      <point x="461" y="-10"/>
      <point x="564" y="73"/>
      <point x="608" y="245" type="curve"/>
      <point x="540" y="245" type="line"/>
      <point x="538" y="233" type="line" smooth="yes"/>
      <point x="520" y="129"/>
      <point x="457" y="47"/>
      <point x="315" y="47" type="curve" smooth="yes"/>
      <point x="171" y="47"/>
      <point x="105" y="130"/>
      <point x="134" y="301" type="curve" smooth="yes"/>
      <point x="150" y="394" type="line" smooth="yes"/>
      <point x="179" y="566"/>
      <point x="246" y="643"/>
      <point x="390" y="643" type="curve" smooth="yes"/>
      <point x="532" y="643"/>
      <point x="591" y="564"/>
      <point x="574" y="463" type="curve" smooth="yes"/>
      <point x="572" y="453" type="line"/>
      <point x="639" y="453" type="line"/>
      <point x="637" y="615"/>
      <point x="548" y="700"/>
      <point x="393" y="700" type="curve" smooth="yes"/>
      <point x="227" y="700"/>
      <point x="115" y="593"/>
      <point x="76" y="361" type="curve" smooth="yes"/>
      <point x="36" y="118"/>
      <point x="123" y="-10"/>
    </contour>
    <contour>
      <point x="295" y="0" type="move" name="bottom"/>
    </contour>
    <contour>
      <point x="411" y="690" type="move" name="top"/>
    </contour>
  </outline>
</glyph>
<glyph name="E" format="1">
  <advance width="606"/>
  <unicode hex="0045"/>
  <outline>
    <contour>
      <point x="522" y="494" type="line"/>
      <point x="577" y="494" type="line"/>
      <point x="610" y="690" type="line"/>
      <point x="88" y="690" type="line"/>
      <point x="79" y="637" type="line"/>
      <point x="171" y="637" type="line"/>
      <point x="64" y="0" type="line"/>
      <point x="498" y="0" type="line"/>
      <point x="532" y="200" type="line"/>
      <point x="477" y="200" type="line"/>
      <point x="452" y="53" type="line"/>
      <point x="136" y="53" type="line"/>
      <point x="182" y="327" type="line"/>
      <point x="453" y="327" type="line"/>
      <point x="462" y="377" type="line"/>
      <point x="191" y="377" type="line"/>
      <point x="234" y="637" type="line"/>
      <point x="546" y="637" type="line"/>
    </contour>
    <contour>
      <point x="498" y="0" type="move" name="ogonek"/>
    </contour>
    <contour>
      <point x="376" y="690" type="move" name="top"/>
    </contour>
  </outline>
</glyph>
<glyph name="I" format="1">
  <advance width="359"/>
  <unicode hex="0049"/>
  <outline>
    <contour>
      <point x="0" y="0" type="line"/>
      <point x="268" y="0" type="line"/>
      <point x="277" y="53" type="line"/>
      <point x="175" y="53" type="line"/>
      <point x="273" y="637" type="line"/>
      <point x="375" y="637" type="line"/>
      <point x="384" y="690" type="line"/>
      <point x="116" y="690" type="line"/>
      <point x="107" y="637" type="line"/>
      <point x="209" y="637" type="line"/>
      <point x="111" y="53" type="line"/>
      <point x="9" y="53" type="line"/>
    </contour>
    <contour>
      <point x="250" y="690" type="move" name="top"/>
    </contour>
  </outline>
</glyph>
<glyph name="K" format="1">
  <advance width="640"/>
  <unicode hex="004B"/>
  <outline>
    <contour>
      <point x="66" y="0" type="line"/>
      <point x="130" y="0" type="line"/>
      <point x="185" y="329" type="line"/>
      <point x="277" y="329" type="line"/>
      <point x="454" y="0" type="line"/>
      <point x="584" y="0" type="line"/>
      <point x="593" y="53" type="line"/>
      <point x="501" y="53" type="line"/>
      <point x="321" y="383" type="line"/>
      <point x="326" y="336" type="line"/>
      <point x="674" y="690" type="line"/>
      <point x="589" y="690" type="line"/>
      <point x="286" y="379" type="line"/>
      <point x="194" y="379" type="line"/>
      <point x="246" y="690" type="line"/>
      <point x="91" y="690" type="line"/>
      <point x="82" y="637" type="line"/>
      <point x="173" y="637" type="line"/>
    </contour>
  </outline>
</glyph>
<glyph name="L" format="1">
  <advance width="577"/>
  <unicode hex="004C"/>
  <outline>
    <contour>
      <point x="63" y="0" type="line"/>
      <point x="484" y="0" type="line"/>
      <point x="518" y="200" type="line"/>
      <point x="463" y="200" type="line"/>
      <point x="438" y="53" type="line"/>
      <point x="136" y="53" type="line"/>
      <point x="234" y="637" type="line"/>
      <point x="325" y="637" type="line"/>
      <point x="334" y="690" type="line"/>
      <point x="88" y="690" type="line"/>
      <point x="79" y="637" type="line"/>
      <point x="170" y="637" type="line"/>
    </contour>
  </outline>
</glyph>
<glyph name="M" format="1">
  <advance width="891"/>
  <unicode hex="004D"/>
  <outline>
    <contour>
      <point x="56" y="0" type="line"/>
      <point x="118" y="0" type="line"/>
      <point x="224" y="633" type="line"/>
      <point x="246" y="633" type="line"/>
      <point x="373" y="0" type="line"/>
      <point x="426" y="0" type="line"/>
      <point x="766" y="633" type="line"/>
      <point x="788" y="633" type="line"/>
      <point x="681" y="0" type="line"/>
      <point x="745" y="0" type="line"/>
      <point x="861" y="690" type="line"/>
      <point x="734" y="690" type="line"/>
      <point x="430" y="129" type="line"/>
      <point x="409" y="129" type="line"/>
      <point x="293" y="690" type="line"/>
      <point x="172" y="690" type="line"/>
    </contour>
  </outline>
</glyph>
<glyph name="N" format="1">
  <advance width="685"/>
  <unicode hex="004E"/>
  <outline>
    <contour>
      <point x="64" y="0" type="line"/>
      <point x="126" y="0" type="line"/>
      <point x="209" y="492" type="line" smooth="yes"/>
      <point x="214" y="523"/>
      <point x="216" y="555"/>
      <point x="220" y="618" type="curve"/>
      <point x="242" y="618" type="line"/>
      <point x="486" y="0" type="line"/>
      <point x="539" y="0" type="line"/>
      <point x="655" y="690" type="line"/>
      <point x="594" y="690" type="line"/>
      <point x="525" y="283" type="line" smooth="yes"/>
      <point x="520" y="252"/>
      <point x="518" y="220"/>
      <point x="514" y="157" type="curve"/>
      <point x="492" y="157" type="line"/>
      <point x="274" y="690" type="line"/>
      <point x="89" y="690" type="line"/>
      <point x="80" y="637" type="line"/>
      <point x="171" y="637" type="line"/>
    </contour>
    <contour>
      <point x="418" y="690" type="move" name="top"/>
    </contour>
  </outline>
</glyph>
<glyph name="O" format="1">
  <advance width="691"/>
  <unicode hex="004F"/>
  <outline>
    <contour>
      <point x="320" y="-10" type="curve" smooth="yes"/>
      <point x="490" y="-10"/>
      <point x="603" y="98"/>
      <point x="642" y="329" type="curve" smooth="yes"/>
      <point x="683" y="574"/>
      <point x="590" y="700"/>
      <point x="397" y="700" type="curve" smooth="yes"/>
      <point x="228" y="700"/>
      <point x="114" y="593"/>
      <point x="76" y="362" type="curve" smooth="yes"/>
      <point x="35" y="116"/>
      <point x="127" y="-10"/>
    </contour>
    <contour>
      <point x="321" y="47" type="curve" smooth="yes"/>
      <point x="173" y="47"/>
      <point x="105" y="130"/>
      <point x="134" y="303" type="curve" smooth="yes"/>
      <point x="149" y="393" type="line" smooth="yes"/>
      <point x="178" y="565"/>
      <point x="248" y="643"/>
      <point x="396" y="643" type="curve" smooth="yes"/>
      <point x="544" y="643"/>
      <point x="612" y="560"/>
      <point x="583" y="388" type="curve" smooth="yes"/>
      <point x="568" y="297" type="line" smooth="yes"/>
      <point x="539" y="125"/>
      <point x="469" y="47"/>
    </contour>
    <contour>
      <point x="415" y="690" type="move" name="top"/>
    </contour>
  </outline>
</glyph>
<glyph name="P" format="1">
  <advance width="613"/>
  <unicode hex="0050"/>
  <outline>
    <contour>
      <point x="65" y="0" type="line"/>
      <point x="129" y="0" type="line"/>
      <point x="180" y="300" type="line"/>
      <point x="399" y="300" type="line" smooth="yes"/>
      <point x="516" y="300"/>
      <point x="583" y="356"/>
      <point x="604" y="480" type="curve" smooth="yes"/>
      <point x="624" y="606"/>
      <point x="561" y="690"/>
      <point x="444" y="690" type="curve" smooth="yes"/>
      <point x="90" y="690" type="line"/>
      <point x="81" y="637" type="line"/>
      <point x="172" y="637" type="line"/>
    </contour>
    <contour>
      <point x="400" y="350" type="curve" smooth="yes"/>
      <point x="188" y="350" type="line"/>
      <point x="236" y="637" type="line"/>
      <point x="431" y="637" type="line" smooth="yes"/>
      <point x="513" y="637"/>
      <point x="557" y="590"/>
      <point x="543" y="509" type="curve" smooth="yes"/>
      <point x="537" y="472" type="line" smooth="yes"/>
      <point x="523" y="392"/>
      <point x="482" y="350"/>
    </contour>
  </outline>
</glyph>
<glyph name="W" format="1">
  <advance width="951"/>
  <unicode hex="0057"/>
  <outline>
    <contour>
      <point x="169" y="0" type="line"/>
      <point x="279" y="0" type="line"/>
      <point x="510" y="541" type="line"/>
      <point x="532" y="541" type="line"/>
      <point x="581" y="0" type="line"/>
      <point x="691" y="0" type="line"/>
      <point x="987" y="690" type="line"/>
      <point x="920" y="690" type="line"/>
      <point x="653" y="57" type="line"/>
      <point x="631" y="57" type="line"/>
      <point x="574" y="690" type="line"/>
      <point x="515" y="690" type="line"/>
      <point x="245" y="57" type="line"/>
      <point x="223" y="57" type="line"/>
      <point x="169" y="690" type="line"/>
      <point x="105" y="690" type="line"/>
    </contour>
  </outline>
</glyph>
<glyph name="Y" format="1">
  <advance width="614"/>
  <unicode hex="0059"/>
  <outline>
    <contour>
      <point x="128" y="0" type="line"/>
      <point x="396" y="0" type="line"/>
      <point x="405" y="53" type="line"/>
      <point x="303" y="53" type="line"/>
      <point x="343" y="290" type="line"/>
      <point x="661" y="690" type="line"/>
      <point x="588" y="690" type="line"/>
      <point x="333" y="369" type="line"/>
      <point x="311" y="369" type="line"/>
      <point x="163" y="690" type="line"/>
      <point x="96" y="690" type="line"/>
      <point x="280" y="290" type="line"/>
      <point x="239" y="53" type="line"/>
      <point x="137" y="53" type="line"/>
    </contour>
    <contour>
      <point x="376" y="690" type="move" name="top"/>
    </contour>
  </outline>
</glyph>
<glyph name="Z" format="1">
  <advance width="569"/>
  <unicode hex="005A"/>
  <outline>
    <contour>
      <point x="2" y="0" type="line"/>
      <point x="478" y="0" type="line"/>
      <point x="487" y="53" type="line"/>
      <point x="92" y="53" type="line"/>
      <point x="582" y="637" type="line"/>
      <point x="591" y="690" type="line"/>
      <point x="121" y="690" type="line"/>
      <point x="112" y="637" type="line"/>
      <point x="501" y="637" type="line"/>
      <point x="11" y="53" type="line"/>
    </contour>
    <contour>
      <point x="356" y="690" type="move" name="top"/>
    </contour>
  </outline>
</glyph>
<glyph name="asciicircum" format="1">
  <advance width="474"/>
  <unicode hex="005E"/>
  <outline>
    <contour>
      <point x="87" y="437" type="line"/>
      <point x="153" y="437" type="line"/>
      <point x="291" y="638" type="line"/>
      <point x="312" y="638" type="line"/>
      <point x="383" y="437" type="line"/>
      <point x="444" y="437" type="line"/>
      <point x="349" y="690" type="line"/>
      <point x="267" y="690" type="line"/>
    </contour>
  </outline>
</glyph>
<glyph name="b" format="1">
  <advance width="596"/>
  <unicode hex="0062"/>
  <outline>
    <contour>
      <point x="297" y="-10" type="curve" smooth="yes"/>
      <point x="427" y="-10"/>
      <point x="508" y="74"/>
      <point x="539" y="253" type="curve" smooth="yes"/>
      <point x="569" y="433"/>
      <point x="498" y="544"/>
      <point x="356" y="544" type="curve" smooth="yes"/>
      <point x="282" y="544"/>
      <point x="233" y="513"/>
      <point x="192" y="445" type="curve"/>
      <point x="170" y="445" type="line"/>
      <point x="188" y="508"/>
      <point x="196" y="540"/>
      <point x="201" y="571" type="curve" smooth="yes"/>
      <point x="222" y="690" type="line"/>
      <point x="81" y="690" type="line"/>
      <point x="72" y="639" type="line"/>
      <point x="151" y="639" type="line"/>
      <point x="44" y="0" type="line"/>
      <point x="94" y="0" type="line"/>
      <point x="110" y="93" type="line"/>
      <point x="131" y="93" type="line"/>
      <point x="164" y="22"/>
      <point x="217" y="-10"/>
    </contour>
    <contour>
      <point x="287" y="45" type="curve" smooth="yes"/>
      <point x="175" y="45"/>
      <point x="124" y="110"/>
      <point x="147" y="245" type="curve" smooth="yes"/>
      <point x="156" y="295" type="line" smooth="yes"/>
      <point x="178" y="429"/>
      <point x="228" y="489"/>
      <point x="339" y="489" type="curve" smooth="yes"/>
      <point x="451" y="489"/>
      <point x="501" y="424"/>
      <point x="479" y="289" type="curve" smooth="yes"/>
      <point x="470" y="239" type="line" smooth="yes"/>
      <point x="447" y="105"/>
      <point x="398" y="45"/>
    </contour>
  </outline>
</glyph>
<glyph name="e" format="1">
  <advance width="570"/>
  <unicode hex="0065"/>
  <outline>
    <contour>
      <point x="262" y="-10" type="curve" smooth="yes"/>
      <point x="373" y="-10"/>
      <point x="452" y="47"/>
      <point x="490" y="161" type="curve"/>
      <point x="425" y="161" type="line"/>
      <point x="425" y="161" type="line"/>
      <point x="417" y="111"/>
      <point x="379" y="45"/>
      <point x="264" y="45" type="curve" smooth="yes"/>
      <point x="148" y="45"/>
      <point x="96" y="111"/>
      <point x="119" y="246" type="curve" smooth="yes"/>
      <point x="127" y="294" type="line" smooth="yes"/>
      <point x="149" y="430"/>
      <point x="201" y="490"/>
      <point x="316" y="490" type="curve" smooth="yes"/>
      <point x="431" y="490"/>
      <point x="484" y="424"/>
      <point x="461" y="288" type="curve" smooth="yes"/>
      <point x="458" y="270" type="line"/>
      <point x="492" y="307" type="line"/>
      <point x="108" y="307" type="line"/>
      <point x="100" y="261" type="line"/>
      <point x="514" y="261" type="line"/>
      <point x="516" y="275" type="line" smooth="yes"/>
      <point x="544" y="450"/>
      <point x="466" y="544"/>
      <point x="320" y="544" type="curve" smooth="yes"/>
      <point x="183" y="544"/>
      <point x="87" y="455"/>
      <point x="58" y="280" type="curve" smooth="yes"/>
      <point x="27" y="92"/>
      <point x="106" y="-10"/>
    </contour>
    <contour>
      <point x="320" y="0" type="move" name="ogonek"/>
    </contour>
    <contour>
      <point x="335" y="534" type="move" name="top"/>
    </contour>
  </outline>
</glyph>
<glyph name="h" format="1">
  <advance width="589"/>
  <unicode hex="0068"/>
  <outline>
    <contour>
      <point x="43" y="0" type="line"/>
      <point x="105" y="0" type="line"/>
      <point x="160" y="328" type="line" smooth="yes"/>
      <point x="179" y="438"/>
      <point x="223" y="489"/>
      <point x="320" y="489" type="curve" smooth="yes"/>
      <point x="418" y="489"/>
      <point x="459" y="438"/>
      <point x="440" y="324" type="curve" smooth="yes"/>
      <point x="385" y="0" type="line"/>
      <point x="526" y="0" type="line"/>
      <point x="534" y="51" type="line"/>
      <point x="455" y="51" type="line"/>
      <point x="503" y="336" type="line" smooth="yes"/>
      <point x="526" y="471"/>
      <point x="461" y="544"/>
      <point x="345" y="544" type="curve" smooth="yes"/>
      <point x="273" y="544"/>
      <point x="226" y="515"/>
      <point x="193" y="457" type="curve"/>
      <point x="172" y="457" type="line"/>
      <point x="189" y="520"/>
      <point x="198" y="552"/>
      <point x="203" y="583" type="curve" smooth="yes"/>
      <point x="221" y="690" type="line"/>
      <point x="80" y="690" type="line"/>
      <point x="71" y="639" type="line"/>
      <point x="151" y="639" type="line"/>
    </contour>
  </outline>
</glyph>
<glyph name="i" format="1">
  <advance width="272"/>
  <unicode hex="0069"/>
  <outline>
    <contour>
      <point x="73" y="0" type="line"/>
      <point x="135" y="0" type="line"/>
      <point x="225" y="534" type="line"/>
      <point x="69" y="534" type="line"/>
      <point x="60" y="483" type="line"/>
      <point x="155" y="483" type="line"/>
    </contour>
    <contour>
      <point x="165" y="615" type="line"/>
      <point x="246" y="615" type="line"/>
      <point x="258" y="690" type="line"/>
      <point x="178" y="690" type="line"/>
    </contour>
  </outline>
</glyph>
<glyph name="m" format="1">
  <advance width="889"/>
  <unicode hex="006D"/>
  <outline>
    <contour>
      <point x="426" y="330" type="curve" smooth="yes"/>
      <point x="370" y="0" type="line"/>
      <point x="432" y="0" type="line"/>
      <point x="488" y="334" type="line" smooth="yes"/>
      <point x="506" y="439"/>
      <point x="548" y="489"/>
      <point x="634" y="489" type="curve" smooth="yes"/>
      <point x="720" y="489"/>
      <point x="759" y="439"/>
      <point x="740" y="330" type="curve" smooth="yes"/>
      <point x="684" y="0" type="line"/>
      <point x="825" y="0" type="line"/>
      <point x="834" y="51" type="line"/>
      <point x="755" y="51" type="line"/>
      <point x="803" y="336" type="line" smooth="yes"/>
      <point x="825" y="471"/>
      <point x="765" y="544"/>
      <point x="659" y="544" type="curve" smooth="yes"/>
      <point x="587" y="544"/>
      <point x="546" y="515"/>
      <point x="512" y="452" type="curve"/>
      <point x="491" y="452" type="line"/>
      <point x="466" y="514"/>
      <point x="415" y="544"/>
      <point x="344" y="544" type="curve" smooth="yes"/>
      <point x="279" y="544"/>
      <point x="236" y="515"/>
      <point x="203" y="452" type="curve"/>
      <point x="182" y="452" type="line"/>
      <point x="196" y="534" type="line"/>
      <point x="67" y="534" type="line"/>
      <point x="58" y="483" type="line"/>
      <point x="137" y="483" type="line"/>
      <point x="56" y="0" type="line"/>
      <point x="118" y="0" type="line"/>
      <point x="174" y="334" type="line" smooth="yes"/>
      <point x="192" y="439"/>
      <point x="234" y="489"/>
      <point x="319" y="489" type="curve" smooth="yes"/>
      <point x="405" y="489"/>
      <point x="444" y="439"/>
    </contour>
  </outline>
</glyph>
<glyph name="n" format="1">
  <advance width="603"/>
  <unicode hex="006E"/>
  <outline>
    <contour>
      <point x="56" y="0" type="line"/>
      <point x="118" y="0" type="line"/>
      <point x="173" y="328" type="line" smooth="yes"/>
      <point x="192" y="438"/>
      <point x="236" y="489"/>
      <point x="333" y="489" type="curve" smooth="yes"/>
      <point x="430" y="489"/>
      <point x="472" y="438"/>
      <point x="452" y="324" type="curve" smooth="yes"/>
      <point x="398" y="0" type="line"/>
      <point x="538" y="0" type="line"/>
      <point x="547" y="51" type="line"/>
      <point x="468" y="51" type="line"/>
      <point x="516" y="336" type="line" smooth="yes"/>
      <point x="538" y="471"/>
      <point x="474" y="544"/>
      <point x="358" y="544" type="curve" smooth="yes"/>
      <point x="285" y="544"/>
      <point x="238" y="515"/>
      <point x="203" y="452" type="curve"/>
      <point x="182" y="452" type="line"/>
      <point x="196" y="534" type="line"/>
      <point x="67" y="534" type="line"/>
      <point x="58" y="483" type="line"/>
      <point x="137" y="483" type="line"/>
    </contour>
    <contour>
      <point x="350" y="534" type="move" name="top"/>
    </contour>
  </outline>
</glyph>
<glyph name="p" format="1">
  <advance width="610"/>
  <unicode hex="0070"/>
  <outline>
    <contour>
      <point x="35" y="-132" type="line"/>
      <point x="96" y="-132" type="line"/>
      <point x="113" y="-37" type="line" smooth="yes"/>
      <point x="118" y="-6"/>
      <point x="122" y="26"/>
      <point x="127" y="89" type="curve"/>
      <point x="149" y="89" type="line"/>
      <point x="177" y="21"/>
      <point x="233" y="-10"/>
      <point x="309" y="-10" type="curve" smooth="yes"/>
      <point x="439" y="-10"/>
      <point x="521" y="74"/>
      <point x="552" y="253" type="curve" smooth="yes"/>
      <point x="582" y="433"/>
      <point x="511" y="544"/>
      <point x="369" y="544" type="curve" smooth="yes"/>
      <point x="291" y="544"/>
      <point x="244" y="512"/>
      <point x="202" y="441" type="curve"/>
      <point x="180" y="441" type="line"/>
      <point x="196" y="534" type="line"/>
      <point x="68" y="534" type="line"/>
      <point x="59" y="483" type="line"/>
      <point x="138" y="483" type="line"/>
    </contour>
    <contour>
      <point x="299" y="45" type="curve" smooth="yes"/>
      <point x="188" y="45"/>
      <point x="137" y="110"/>
      <point x="160" y="245" type="curve" smooth="yes"/>
      <point x="168" y="295" type="line" smooth="yes"/>
      <point x="191" y="429"/>
      <point x="240" y="489"/>
      <point x="352" y="489" type="curve" smooth="yes"/>
      <point x="463" y="489"/>
      <point x="514" y="424"/>
      <point x="491" y="289" type="curve" smooth="yes"/>
      <point x="483" y="239" type="line" smooth="yes"/>
      <point x="460" y="105"/>
      <point x="411" y="45"/>
    </contour>
  </outline>
</glyph>
<glyph name="t" format="1">
  <advance width="365"/>
  <unicode hex="0074"/>
  <outline>
    <contour>
      <point x="132" y="0" type="curve" smooth="yes"/>
      <point x="285" y="0" type="line"/>
      <point x="293" y="51" type="line"/>
      <point x="151" y="51" type="line"/>
      <point x="250" y="641" type="line"/>
      <point x="214" y="641" type="line"/>
      <point x="170" y="534" type="line"/>
      <point x="90" y="51" type="line" smooth="yes"/>
      <point x="85" y="18"/>
      <point x="98" y="0"/>
    </contour>
    <contour>
      <point x="53" y="483" type="line"/>
      <point x="366" y="483" type="line"/>
      <point x="375" y="534" type="line"/>
      <point x="62" y="534" type="line"/>
    </contour>
  </outline>
</glyph>
<glyph name="y" format="1">
  <advance width="537"/>
  <unicode hex="0079"/>
  <outline>
    <contour>
      <point x="18" y="-132" type="line"/>
      <point x="167" y="-132" type="line" smooth="yes"/>
      <point x="198" y="-132"/>
      <point x="216" y="-115"/>
      <point x="231" y="-85" type="curve" smooth="yes"/>
      <point x="552" y="534" type="line"/>
      <point x="485" y="534" type="line"/>
      <point x="246" y="69" type="line"/>
      <point x="225" y="69" type="line"/>
      <point x="142" y="534" type="line"/>
      <point x="79" y="534" type="line"/>
      <point x="171" y="18" type="line"/>
      <point x="219" y="18" type="line"/>
      <point x="167" y="-81" type="line"/>
      <point x="26" y="-81" type="line"/>
    </contour>
    <contour>
      <point x="314" y="534" type="move" name="top"/>
    </contour>
  </outline>
</glyph>
<glyph name="braceleft" format="1">
  <advance width="360"/>
  <unicode hex="007B"/>
  <outline>
    <contour>
      <point x="117" y="-92" type="curve" smooth="yes"/>
      <point x="263" y="-92" type="line"/>
      <point x="272" y="-41" type="line"/>
      <point x="140" y="-41" type="line" smooth="yes"/>
      <point x="125" y="-41"/>
      <point x="119" y="-33"/>
      <point x="121" y="-18" type="curve" smooth="yes"/>
      <point x="127" y="19"/>
      <point x="204" y="215"/>
      <point x="214" y="276" type="curve" smooth="yes"/>
      <point x="221" y="313"/>
      <point x="209" y="333"/>
      <point x="180" y="337" type="curve"/>
      <point x="182" y="353" type="line"/>
      <point x="213" y="357"/>
      <point x="232" y="377"/>
      <point x="238" y="414" type="curve" smooth="yes"/>
      <point x="248" y="475"/>
      <point x="236" y="671"/>
      <point x="243" y="708" type="curve" smooth="yes"/>
      <point x="245" y="724"/>
      <point x="254" y="731"/>
      <point x="269" y="731" type="curve" smooth="yes"/>
      <point x="400" y="731" type="line"/>
      <point x="409" y="782" type="line"/>
      <point x="255" y="782" type="line" smooth="yes"/>
      <point x="216" y="782"/>
      <point x="192" y="762"/>
      <point x="186" y="722" type="curve" smooth="yes"/>
      <point x="175" y="662"/>
      <point x="189" y="469"/>
      <point x="180" y="412" type="curve" smooth="yes"/>
      <point x="175" y="384"/>
      <point x="161" y="370"/>
      <point x="139" y="370" type="curve" smooth="yes"/>
      <point x="46" y="370" type="line"/>
      <point x="38" y="320" type="line"/>
      <point x="131" y="320" type="line" smooth="yes"/>
      <point x="153" y="320"/>
      <point x="162" y="307"/>
      <point x="158" y="278" type="curve" smooth="yes"/>
      <point x="148" y="221"/>
      <point x="71" y="36"/>
      <point x="61" y="-24" type="curve" smooth="yes"/>
      <point x="53" y="-69"/>
      <point x="72" y="-92"/>
    </contour>
  </outline>
</glyph>
<glyph name="exclamdown" format="1">
  <advance width="261"/>
  <unicode hex="00A1"/>
  <outline>
    <contour>
      <point x="166" y="365" type="line"/>
      <point x="129" y="365" type="line"/>
      <point x="35" y="-103" type="line"/>
      <point x="26" y="-156" type="line"/>
      <point x="94" y="-156" type="line"/>
      <point x="103" y="-103" type="line"/>
    </contour>
    <contour>
      <point x="217" y="534" type="line"/>
      <point x="135" y="534" type="line"/>
      <point x="121" y="454" type="line"/>
      <point x="203" y="454" type="line"/>
    </contour>
  </outline>
</glyph>
<glyph name="copyright" format="1">
  <advance width="818"/>
  <unicode hex="00A9"/>
  <outline>
    <contour>
      <point x="383" y="-40" type="curve" smooth="yes"/>
      <point x="584" y="-40"/>
      <point x="740" y="99"/>
      <point x="777" y="325" type="curve" smooth="yes"/>
      <point x="816" y="559"/>
      <point x="693" y="730"/>
      <point x="461" y="730" type="curve" smooth="yes"/>
      <point x="260" y="730"/>
      <point x="104" y="591"/>
      <point x="67" y="365" type="curve" smooth="yes"/>
      <point x="28" y="130"/>
      <point x="151" y="-40"/>
    </contour>
    <contour>
      <point x="376" y="13" type="curve" smooth="yes"/>
      <point x="193" y="13"/>
      <point x="87" y="151"/>
      <point x="118" y="338" type="curve" smooth="yes"/>
      <point x="123" y="372" type="line" smooth="yes"/>
      <point x="154" y="556"/>
      <point x="284" y="677"/>
      <point x="468" y="677" type="curve" smooth="yes"/>
      <point x="651" y="677"/>
      <point x="756" y="539"/>
      <point x="726" y="352" type="curve" smooth="yes"/>
      <point x="720" y="318" type="line" smooth="yes"/>
      <point x="690" y="134"/>
      <point x="559" y="13"/>
    </contour>
    <contour>
      <point x="394" y="100" type="curve" smooth="yes"/>
      <point x="499" y="100"/>
      <point x="577" y="157"/>
      <point x="610" y="273" type="curve"/>
      <point x="547" y="273" type="line"/>
      <point x="546" y="271" type="line" smooth="yes"/>
      <point x="536" y="208"/>
      <point x="498" y="154"/>
      <point x="399" y="154" type="curve" smooth="yes"/>
      <point x="301" y="154"/>
      <point x="254" y="206"/>
      <point x="274" y="325" type="curve" smooth="yes"/>
      <point x="282" y="374" type="line" smooth="yes"/>
      <point x="301" y="489"/>
      <point x="347" y="536"/>
      <point x="445" y="536" type="curve" smooth="yes"/>
      <point x="544" y="536"/>
      <point x="580" y="476"/>
      <point x="572" y="427" type="curve" smooth="yes"/>
      <point x="572" y="425" type="line"/>
      <point x="630" y="425" type="line"/>
      <point x="624" y="534"/>
      <point x="555" y="590"/>
      <point x="448" y="590" type="curve" smooth="yes"/>
      <point x="325" y="590"/>
      <point x="244" y="515"/>
      <point x="217" y="357" type="curve" smooth="yes"/>
      <point x="189" y="192"/>
      <point x="258" y="100"/>
    </contour>
  </outline>
</glyph>
<glyph name="guillemetleft" format="1">
  <advance width="529"/>
  <unicode hex="00AB"/>
  <outline>
    <contour>
      <point x="377" y="82" type="line"/>
      <point x="441" y="82" type="line"/>
      <point x="310" y="278" type="line"/>
      <point x="312" y="290" type="line"/>
      <point x="506" y="486" type="line"/>
      <point x="438" y="486" type="line"/>
      <point x="255" y="311" type="line"/>
      <point x="247" y="269" type="line"/>
    </contour>
    <contour>
      <point x="180" y="82" type="line"/>
      <point x="244" y="82" type="line"/>
      <point x="113" y="278" type="line"/>
      <point x="115" y="290" type="line"/>
      <point x="309" y="486" type="line"/>
      <point x="241" y="486" type="line"/>
      <point x="58" y="311" type="line"/>
      <point x="50" y="269" type="line"/>
    </contour>
  </outline>
</glyph>
<glyph name="degree" format="1">
  <advance width="388"/>
  <unicode hex="00B0"/>
  <outline>
    <contour>
      <point x="224" y="371" type="curve" smooth="yes"/>
      <point x="313" y="371"/>
      <point x="376" y="425"/>
      <point x="393" y="526" type="curve" smooth="yes"/>
      <point x="411" y="640"/>
      <point x="352" y="699"/>
      <point x="253" y="699" type="curve" smooth="yes"/>
      <point x="164" y="699"/>
      <point x="102" y="645"/>
      <point x="86" y="544" type="curve" smooth="yes"/>
      <point x="67" y="431"/>
      <point x="126" y="371"/>
    </contour>
    <contour>
      <point x="225" y="417" type="curve" smooth="yes"/>
      <point x="156" y="417"/>
      <point x="124" y="454"/>
      <point x="136" y="526" type="curve" smooth="yes"/>
      <point x="141" y="551" type="line" smooth="yes"/>
      <point x="152" y="622"/>
      <point x="182" y="653"/>
      <point x="251" y="653" type="curve" smooth="yes"/>
      <point x="320" y="653"/>
      <point x="354" y="616"/>
      <point x="343" y="546" type="curve" smooth="yes"/>
      <point x="338" y="520" type="line" smooth="yes"/>
      <point x="326" y="448"/>
      <point x="295" y="417"/>
    </contour>
  </outline>
</glyph>
<glyph name="plusminus" format="1">
  <advance width="474"/>
  <unicode hex="00B1"/>
  <outline>
    <contour>
      <point x="53" y="347" type="line"/>
      <point x="448" y="347" type="line"/>
      <point x="456" y="397" type="line"/>
      <point x="61" y="397" type="line"/>
    </contour>
    <contour>
      <point x="195" y="177" type="line"/>
      <point x="249" y="177" type="line"/>
      <point x="315" y="567" type="line"/>
      <point x="260" y="567" type="line"/>
    </contour>
    <contour>
      <point x="-1" y="24" type="line"/>
      <point x="394" y="24" type="line"/>
      <point x="403" y="75" type="line"/>
      <point x="8" y="75" type="line"/>
    </contour>
  </outline>
</glyph>
<glyph name="threesuperior" format="1">
  <advance width="372"/>
  <unicode hex="00B3"/>
  <note>
threesuperior
</note>
  <outline>
    <contour>
      <point x="218" y="363" type="curve" smooth="yes"/>
      <point x="298" y="363"/>
      <point x="354" y="392"/>
      <point x="363" y="449" type="curve" smooth="yes"/>
      <point x="369" y="488"/>
      <point x="349" y="521"/>
      <point x="307" y="524" type="curve"/>
      <point x="310" y="538" type="line"/>
      <point x="353" y="542"/>
      <point x="379" y="557"/>
      <point x="385" y="596" type="curve" smooth="yes"/>
      <point x="397" y="666"/>
      <point x="316" y="694"/>
      <point x="246" y="694" type="curve" smooth="yes"/>
      <point x="167" y="694"/>
      <point x="119" y="664"/>
      <point x="98" y="588" type="curve"/>
      <point x="155" y="588" type="line"/>
      <point x="156" y="598" type="line" smooth="yes"/>
      <point x="161" y="628"/>
      <point x="187" y="651"/>
      <point x="244" y="651" type="curve" smooth="yes"/>
      <point x="297" y="651"/>
      <point x="328" y="631"/>
      <point x="326" y="598" type="curve" smooth="yes"/>
      <point x="326" y="595" type="line" smooth="yes"/>
      <point x="325" y="565"/>
      <point x="306" y="551"/>
      <point x="267" y="551" type="curve" smooth="yes"/>
      <point x="180" y="551" type="line"/>
      <point x="173" y="513" type="line"/>
      <point x="245" y="513" type="line" smooth="yes"/>
      <point x="285" y="513"/>
      <point x="307" y="495"/>
      <point x="306" y="461" type="curve" smooth="yes"/>
      <point x="305" y="459" type="line" smooth="yes"/>
      <point x="303" y="425"/>
      <point x="272" y="407"/>
      <point x="219" y="407" type="curve" smooth="yes"/>
      <point x="161" y="407"/>
      <point x="133" y="429"/>
      <point x="135" y="466" type="curve" smooth="yes"/>
      <point x="135" y="470" type="line"/>
      <point x="79" y="470" type="line"/>
      <point x="83" y="391"/>
      <point x="135" y="363"/>
    </contour>
  </outline>
</glyph>
<glyph name="micro" format="1">
  <advance width="592"/>
  <unicode hex="00B5"/>
  <outline>
    <contour>
      <point x="28" y="-132" type="line"/>
      <point x="89" y="-132" type="line"/>
      <point x="105" y="-37" type="line" smooth="yes"/>
      <point x="110" y="-6"/>
      <point x="113" y="26"/>
      <point x="116" y="89" type="curve"/>
      <point x="105" y="81" type="line"/>
      <point x="112" y="24"/>
      <point x="170" y="-10"/>
      <point x="241" y="-10" type="curve" smooth="yes"/>
      <point x="314" y="-10"/>
      <point x="361" y="19"/>
      <point x="396" y="82" type="curve"/>
      <point x="417" y="82" type="line"/>
      <point x="403" y="0" type="line"/>
      <point x="453" y="0" type="line"/>
      <point x="543" y="534" type="line"/>
      <point x="481" y="534" type="line"/>
      <point x="426" y="206" type="line" smooth="yes"/>
      <point x="407" y="96"/>
      <point x="363" y="45"/>
      <point x="266" y="45" type="curve" smooth="yes"/>
      <point x="168" y="45"/>
      <point x="127" y="96"/>
      <point x="146" y="210" type="curve" smooth="yes"/>
      <point x="201" y="534" type="line"/>
      <point x="140" y="534" type="line"/>
    </contour>
  </outline>
</glyph>
<glyph name="onesuperior" format="1">
  <advance width="341"/>
  <unicode hex="00B9"/>
  <note>
onesuperior
</note>
  <outline>
    <contour>
      <point x="82" y="368" type="line"/>
      <point x="310" y="368" type="line"/>
      <point x="317" y="409" type="line"/>
      <point x="231" y="409" type="line"/>
      <point x="279" y="690" type="line"/>
      <point x="242" y="690" type="line"/>
      <point x="130" y="648" type="line"/>
      <point x="123" y="605" type="line"/>
      <point x="213" y="637" type="line"/>
      <point x="174" y="409" type="line"/>
      <point x="89" y="409" type="line"/>
    </contour>
  </outline>
</glyph>
<glyph name="guillemetright" format="1">
  <advance width="529"/>
  <unicode hex="00BB"/>
  <outline>
    <contour>
      <point x="158" y="486" type="line"/>
      <point x="93" y="486" type="line"/>
      <point x="225" y="290" type="line"/>
      <point x="223" y="278" type="line"/>
      <point x="29" y="82" type="line"/>
      <point x="97" y="82" type="line"/>
      <point x="280" y="257" type="line"/>
      <point x="288" y="299" type="line"/>
    </contour>
    <contour>
      <point x="355" y="486" type="line"/>
      <point x="290" y="486" type="line"/>
      <point x="422" y="290" type="line"/>
      <point x="420" y="278" type="line"/>
      <point x="226" y="82" type="line"/>
      <point x="294" y="82" type="line"/>
      <point x="477" y="257" type="line"/>
      <point x="485" y="299" type="line"/>
    </contour>
  </outline>
</glyph>
<glyph name="Eacute" format="1">
  <advance width="606"/>
  <unicode hex="00C9"/>
  <note>
Eacute
</note>
  <outline>
    <component base="E"/>
    <component base="acutecomb.case" xOffset="112" yOffset="40"/>
    <contour>
      <point x="498" y="0" type="move" name="ogonek"/>
    </contour>
    <contour>
      <point x="376" y="690" type="move" name="top"/>
    </contour>
  </outline>
</glyph>
<glyph name="multiply" format="1">
  <advance width="474"/>
  <unicode hex="00D7"/>
  <outline>
    <contour>
      <point x="86" y="164" type="line"/>
      <point x="445" y="472" type="line"/>
      <point x="412" y="510" type="line"/>
      <point x="53" y="202" type="line"/>
    </contour>
    <contour>
      <point x="359" y="164" type="line"/>
      <point x="399" y="197" type="line"/>
      <point x="139" y="510" type="line"/>
      <point x="99" y="477" type="line"/>
    </contour>
  </outline>
</glyph>
<glyph name="germandbls" format="1">
  <advance width="604"/>
  <unicode hex="00DF"/>
  <note>
germandbls
</note>
  <outline>
    <contour>
      <point x="144" y="509" type="curve" smooth="yes"/>
      <point x="59" y="0" type="line"/>
      <point x="120" y="0" type="line"/>
      <point x="206" y="508" type="line" smooth="yes"/>
      <point x="221" y="598"/>
      <point x="273" y="645"/>
      <point x="372" y="645" type="curve" smooth="yes"/>
      <point x="465" y="645"/>
      <point x="516" y="598"/>
      <point x="502" y="518" type="curve" smooth="yes"/>
      <point x="498" y="494" type="line" smooth="yes"/>
      <point x="485" y="422"/>
      <point x="449" y="385"/>
      <point x="373" y="385" type="curve" smooth="yes"/>
      <point x="278" y="385" type="line"/>
      <point x="270" y="335" type="line"/>
      <point x="352" y="335" type="line" smooth="yes"/>
      <point x="442" y="335"/>
      <point x="489" y="289"/>
      <point x="475" y="205" type="curve" smooth="yes"/>
      <point x="469" y="172" type="line" smooth="yes"/>
      <point x="455" y="91"/>
      <point x="411" y="51"/>
      <point x="321" y="51" type="curve" smooth="yes"/>
      <point x="208" y="51" type="line"/>
      <point x="199" y="0" type="line"/>
      <point x="320" y="0" type="line" smooth="yes"/>
      <point x="443" y="0"/>
      <point x="514" y="58"/>
      <point x="535" y="180" type="curve" smooth="yes"/>
      <point x="551" y="274"/>
      <point x="514" y="336"/>
      <point x="435" y="347" type="curve"/>
      <point x="438" y="369" type="line"/>
      <point x="512" y="378"/>
      <point x="548" y="413"/>
      <point x="562" y="498" type="curve" smooth="yes"/>
      <point x="582" y="616"/>
      <point x="517" y="692"/>
      <point x="389" y="699" type="curve" smooth="yes"/>
      <point x="258" y="707"/>
      <point x="165" y="635"/>
    </contour>
    <contour>
      <point x="57" y="483" type="line"/>
      <point x="182" y="483" type="line"/>
      <point x="191" y="534" type="line"/>
      <point x="65" y="534" type="line"/>
    </contour>
  </outline>
</glyph>
<glyph name="ae" format="1">
  <advance width="898"/>
  <unicode hex="00E6"/>
  <note>
ae
</note>
  <outline>
    <contour>
      <point x="196" y="-10" type="curve" smooth="yes"/>
      <point x="280" y="-10"/>
      <point x="340" y="19"/>
      <point x="386" y="96" type="curve"/>
      <point x="408" y="96" type="line"/>
      <point x="443" y="13"/>
      <point x="512" y="-10"/>
      <point x="594" y="-10" type="curve" smooth="yes"/>
      <point x="702" y="-10"/>
      <point x="781" y="47"/>
      <point x="819" y="161" type="curve"/>
      <point x="754" y="161" type="line"/>
      <point x="754" y="161" type="line"/>
      <point x="746" y="111"/>
      <point x="707" y="45"/>
      <point x="595" y="45" type="curve" smooth="yes"/>
      <point x="483" y="45"/>
      <point x="432" y="111"/>
      <point x="454" y="246" type="curve" smooth="yes"/>
      <point x="462" y="294" type="line" smooth="yes"/>
      <point x="485" y="430"/>
      <point x="536" y="490"/>
      <point x="648" y="490" type="curve" smooth="yes"/>
      <point x="760" y="490"/>
      <point x="812" y="424"/>
      <point x="789" y="288" type="curve" smooth="yes"/>
      <point x="786" y="270" type="line"/>
      <point x="820" y="307" type="line"/>
      <point x="443" y="307" type="line"/>
      <point x="435" y="261" type="line"/>
      <point x="843" y="261" type="line"/>
      <point x="845" y="275" type="line" smooth="yes"/>
      <point x="872" y="450"/>
      <point x="795" y="544"/>
      <point x="652" y="544" type="curve" smooth="yes"/>
      <point x="574" y="544"/>
      <point x="501" y="506"/>
      <point x="473" y="456" type="curve"/>
      <point x="452" y="456" type="line"/>
      <point x="439" y="510"/>
      <point x="386" y="544"/>
      <point x="297" y="544" type="curve" smooth="yes"/>
      <point x="184" y="544"/>
      <point x="118" y="493"/>
      <point x="85" y="373" type="curve"/>
      <point x="149" y="373" type="line"/>
      <point x="149" y="373" type="line"/>
      <point x="159" y="435"/>
      <point x="195" y="489"/>
      <point x="292" y="489" type="curve" smooth="yes"/>
      <point x="383" y="489"/>
      <point x="426" y="444"/>
      <point x="408" y="337" type="curve" smooth="yes"/>
      <point x="400" y="290" type="line"/>
      <point x="398" y="279" type="line"/>
      <point x="382" y="183" type="line" smooth="yes"/>
      <point x="367" y="93"/>
      <point x="315" y="45"/>
      <point x="215" y="45" type="curve" smooth="yes"/>
      <point x="132" y="45"/>
      <point x="87" y="81"/>
      <point x="98" y="148" type="curve" smooth="yes"/>
      <point x="99" y="154" type="line" smooth="yes"/>
      <point x="109" y="212"/>
      <point x="159" y="245"/>
      <point x="252" y="249" type="curve" smooth="yes"/>
      <point x="395" y="256" type="line"/>
      <point x="403" y="303" type="line"/>
      <point x="244" y="295" type="line" smooth="yes"/>
      <point x="124" y="289"/>
      <point x="49" y="242"/>
      <point x="34" y="149" type="curve" smooth="yes"/>
      <point x="19" y="56"/>
      <point x="80" y="-10"/>
    </contour>
    <contour>
      <point x="472" y="534" type="move" name="top"/>
    </contour>
  </outline>
</glyph>
<glyph name="edieresis" format="1">
  <advance width="570"/>
  <unicode hex="00EB"/>
  <outline>
    <component base="e"/>
    <component base="dieresiscomb" xOffset="90"/>
    <contour>
      <point x="320" y="0" type="move" name="ogonek"/>
    </contour>
    <contour>
      <point x="335" y="534" type="move" name="top"/>
    </contour>
  </outline>
</glyph>
<glyph name="ograve" format="1">
  <advance width="583"/>
  <unicode hex="00F2"/>
  <note>
ograve
</note>
  <outline>
    <component base="o"/>
    <component base="gravecomb" xOffset="92"/>
    <contour>
      <point x="337" y="534" type="move" name="top"/>
    </contour>
  </outline>
</glyph>
<glyph name="ocircumflex" format="1">
  <advance width="583"/>
  <unicode hex="00F4"/>
  <note>
ocircumflex
</note>
  <outline>
    <component base="o"/>
    <component base="circumflexcomb" xOffset="92"/>
    <contour>
      <point x="337" y="534" type="move" name="top"/>
    </contour>
  </outline>
</glyph>
<glyph name="IJ" format="1">
  <advance width="703"/>
  <unicode hex="0132"/>
  <outline>
    <contour>
      <point x="349" y="-10" type="curve" smooth="yes"/>
      <point x="503" y="-10"/>
      <point x="584" y="73"/>
      <point x="616" y="267" type="curve" smooth="yes"/>
      <point x="687" y="690" type="line"/>
      <point x="623" y="690" type="line"/>
      <point x="549" y="249" type="line" smooth="yes"/>
      <point x="525" y="106"/>
      <point x="479" y="47"/>
      <point x="347" y="47" type="curve" smooth="yes"/>
      <point x="223" y="47"/>
      <point x="168" y="112"/>
      <point x="191" y="247" type="curve" smooth="yes"/>
      <point x="196" y="277" type="line"/>
      <point x="133" y="277" type="line"/>
      <point x="132" y="271" type="line" smooth="yes"/>
      <point x="100" y="79"/>
      <point x="185" y="-10"/>
    </contour>
    <contour>
      <point x="55" y="333" type="line"/>
      <point x="292" y="333" type="line"/>
      <point x="301" y="384" type="line"/>
      <point x="212" y="384" type="line"/>
      <point x="254" y="637" type="line"/>
      <point x="343" y="637" type="line"/>
      <point x="352" y="690" type="line"/>
      <point x="115" y="690" type="line"/>
      <point x="106" y="637" type="line"/>
      <point x="195" y="637" type="line"/>
      <point x="153" y="384" type="line"/>
      <point x="64" y="384" type="line"/>
    </contour>
    <contour>
      <point x="440" y="637" type="line"/>
      <point x="640" y="637" type="line"/>
      <point x="649" y="690" type="line"/>
      <point x="449" y="690" type="line"/>
    </contour>
  </outline>
</glyph>
<glyph name="jdotless" format="1">
  <advance width="272"/>
  <unicode hex="0237"/>
  <outline>
    <contour>
      <point x="-50" y="-132" type="line"/>
      <point x="70" y="-132" type="line" smooth="yes"/>
      <point x="98" y="-132"/>
      <point x="115" y="-117"/>
      <point x="120" y="-89" type="curve" smooth="yes"/>
      <point x="225" y="534" type="line"/>
      <point x="69" y="534" type="line"/>
      <point x="60" y="483" type="line"/>
      <point x="155" y="483" type="line"/>
      <point x="60" y="-81" type="line"/>
      <point x="-41" y="-81" type="line"/>
    </contour>
    <contour>
      <point x="192" y="534" type="move" name="top"/>
    </contour>
  </outline>
</glyph>
<glyph name="breve" format="1">
  <advance width="400"/>
  <unicode hex="02D8"/>
  <outline>
    <contour>
      <point x="262" y="574" type="curve" smooth="yes"/>
      <point x="344" y="574"/>
      <point x="392" y="617"/>
      <point x="412" y="701" type="curve"/>
      <point x="359" y="701" type="line"/>
      <point x="359" y="701" type="line"/>
      <point x="351" y="649"/>
      <point x="317" y="619"/>
      <point x="262" y="619" type="curve" smooth="yes"/>
      <point x="208" y="619"/>
      <point x="177" y="649"/>
      <point x="186" y="701" type="curve"/>
      <point x="186" y="701" type="line"/>
      <point x="133" y="701" type="line"/>
      <point x="133" y="617"/>
      <point x="179" y="574"/>
    </contour>
    <contour>
      <point x="245" y="534" type="move" name="_top"/>
    </contour>
  </outline>
</glyph>
<glyph name="tilde" format="1">
  <advance width="400"/>
  <unicode hex="02DC"/>
  <outline>
    <component base="tildecomb" identifier="CEA4D547"/>
    <contour>
      <point x="245" y="534" type="move" name="_top"/>
    </contour>
  </outline>
</glyph>
<glyph name="circumflexcomb" format="1">
  <advance width="0"/>
  <unicode hex="0302"/>
  <note>
circumflex
</note>
  <outline>
    <contour>
      <point x="109" y="578" type="line"/>
      <point x="164" y="578" type="line"/>
      <point x="256" y="656" type="line"/>
      <point x="278" y="656" type="line"/>
      <point x="344" y="578" type="line"/>
      <point x="395" y="578" type="line"/>
      <point x="317" y="701" type="line"/>
      <point x="227" y="701" type="line"/>
    </contour>
    <contour>
      <point x="245" y="534" type="move" name="_top"/>
    </contour>
  </outline>
</glyph>
<glyph name="tildecomb" format="1">
  <advance width="0"/>
  <unicode hex="0303"/>
  <note>
tilde
</note>
  <outline>
    <contour>
      <point x="317" y="578" type="curve" smooth="yes"/>
      <point x="363" y="578"/>
      <point x="392" y="605"/>
      <point x="400" y="655" type="curve" smooth="yes"/>
      <point x="406" y="693" type="line"/>
      <point x="365" y="693" type="line"/>
      <point x="359" y="659" type="line" smooth="yes"/>
      <point x="355" y="634"/>
      <point x="341" y="622"/>
      <point x="320" y="622" type="curve" smooth="yes"/>
      <point x="270" y="622"/>
      <point x="281" y="697"/>
      <point x="207" y="697" type="curve" smooth="yes"/>
      <point x="161" y="697"/>
      <point x="133" y="670"/>
      <point x="124" y="621" type="curve" smooth="yes"/>
      <point x="118" y="582" type="line"/>
      <point x="159" y="582" type="line"/>
      <point x="165" y="616" type="line" smooth="yes"/>
      <point x="169" y="641"/>
      <point x="183" y="654"/>
      <point x="205" y="654" type="curve" smooth="yes"/>
      <point x="254" y="654"/>
      <point x="244" y="578"/>
    </contour>
    <contour>
      <point x="245" y="534" type="move" name="_top"/>
    </contour>
  </outline>
</glyph>
<glyph name="dieresiscomb" format="1">
  <advance width="0"/>
  <unicode hex="0308"/>
  <outline>
    <contour>
      <point x="122" y="615" type="line"/>
      <point x="202" y="615" type="line"/>
      <point x="215" y="690" type="line"/>
      <point x="134" y="690" type="line"/>
    </contour>
    <contour>
      <point x="315" y="615" type="line"/>
      <point x="395" y="615" type="line"/>
      <point x="408" y="690" type="line"/>
      <point x="327" y="690" type="line"/>
    </contour>
    <contour>
      <point x="245" y="534" type="move" name="_top"/>
    </contour>
  </outline>
</glyph>
<glyph name="caroncomb" format="1">
  <advance width="0"/>
  <unicode hex="030C"/>
  <outline>
    <contour>
      <point x="415" y="701" type="line"/>
      <point x="361" y="701" type="line"/>
      <point x="268" y="623" type="line"/>
      <point x="247" y="623" type="line"/>
      <point x="181" y="701" type="line"/>
      <point x="130" y="701" type="line"/>
      <point x="207" y="578" type="line"/>
      <point x="297" y="578" type="line"/>
    </contour>
    <contour>
      <point x="245" y="534" type="move" name="_top"/>
    </contour>
  </outline>
</glyph>
<glyph name="ogonekcomb" format="1">
  <advance width="0"/>
  <unicode hex="0328"/>
  <outline>
    <contour>
      <point x="54" y="-143" type="curve" smooth="yes"/>
      <point x="138" y="-143" type="line"/>
      <point x="145" y="-100" type="line"/>
      <point x="63" y="-100" type="line" smooth="yes"/>
      <point x="43" y="-100"/>
      <point x="34" y="-92"/>
      <point x="37" y="-75" type="curve" smooth="yes"/>
      <point x="40" y="-53"/>
      <point x="68" y="-34"/>
      <point x="155" y="0" type="curve"/>
      <point x="77" y="13" type="line"/>
      <point x="72" y="-17" type="line"/>
      <point x="18" y="-30"/>
      <point x="-5" y="-47"/>
      <point x="-11" y="-83" type="curve" smooth="yes"/>
      <point x="-17" y="-119"/>
      <point x="5" y="-143"/>
    </contour>
    <contour>
      <point x="155" y="0" type="move" name="_ogonek"/>
    </contour>
  </outline>
</glyph>
<glyph name="Germandbls" format="1">
  <advance width="668"/>
  <unicode hex="1E9E"/>
  <outline>
    <contour>
      <point x="83" y="0" type="line"/>
      <point x="147" y="0" type="line"/>
      <point x="254" y="637" type="line"/>
      <point x="569" y="637" type="line"/>
      <point x="346" y="391" type="line"/>
      <point x="338" y="340" type="line"/>
      <point x="411" y="340" type="line" smooth="yes"/>
      <point x="501" y="340"/>
      <point x="547" y="293"/>
      <point x="533" y="209" type="curve" smooth="yes"/>
      <point x="528" y="176" type="line" smooth="yes"/>
      <point x="514" y="94"/>
      <point x="468" y="53"/>
      <point x="379" y="53" type="curve" smooth="yes"/>
      <point x="242" y="53" type="line"/>
      <point x="233" y="0" type="line"/>
      <point x="377" y="0" type="line" smooth="yes"/>
      <point x="501" y="0"/>
      <point x="573" y="58"/>
      <point x="594" y="182" type="curve" smooth="yes"/>
      <point x="614" y="306"/>
      <point x="547" y="390"/>
      <point x="426" y="390" type="curve" smooth="yes"/>
      <point x="380" y="390" type="line"/>
      <point x="406" y="368" type="line"/>
      <point x="651" y="637" type="line"/>
      <point x="660" y="690" type="line"/>
      <point x="108" y="690" type="line"/>
      <point x="99" y="637" type="line"/>
      <point x="190" y="637" type="line"/>
    </contour>
  </outline>
</glyph>
<glyph name="emdash" format="1">
  <advance width="779"/>
  <unicode hex="2014"/>
  <outline>
    <contour>
      <point x="57" y="259" type="line"/>
      <point x="717" y="259" type="line"/>
      <point x="726" y="309" type="line"/>
      <point x="66" y="309" type="line"/>
    </contour>
  </outline>
</glyph>
<glyph name="daggerdbl" format="1">
  <advance width="489"/>
  <unicode hex="2021"/>
  <outline>
    <contour>
      <point x="94" y="461" type="line"/>
      <point x="459" y="461" type="line"/>
      <point x="468" y="515" type="line"/>
      <point x="391" y="515" type="line"/>
      <point x="306" y="492" type="line"/>
      <point x="301" y="497" type="line"/>
      <point x="328" y="591" type="line"/>
      <point x="345" y="690" type="line"/>
      <point x="285" y="690" type="line"/>
      <point x="268" y="591" type="line"/>
      <point x="265" y="497" type="line"/>
      <point x="258" y="492" type="line"/>
      <point x="181" y="515" type="line"/>
      <point x="104" y="515" type="line"/>
    </contour>
    <contour>
      <point x="169" y="0" type="line"/>
      <point x="229" y="0" type="line"/>
      <point x="246" y="99" type="line"/>
      <point x="249" y="193" type="line"/>
      <point x="256" y="198" type="line"/>
      <point x="333" y="175" type="line"/>
      <point x="411" y="175" type="line"/>
      <point x="420" y="229" type="line"/>
      <point x="56" y="229" type="line"/>
      <point x="46" y="175" type="line"/>
      <point x="124" y="175" type="line"/>
      <point x="209" y="198" type="line"/>
      <point x="214" y="193" type="line"/>
      <point x="186" y="99" type="line"/>
    </contour>
    <contour>
      <point x="216" y="309" type="line"/>
      <point x="287" y="309" type="line"/>
      <point x="299" y="381" type="line"/>
      <point x="227" y="381" type="line"/>
    </contour>
  </outline>
</glyph>
<glyph name="guilsinglleft" format="1">
  <advance width="332"/>
  <unicode hex="2039"/>
  <outline>
    <contour>
      <point x="180" y="82" type="line"/>
      <point x="244" y="82" type="line"/>
      <point x="113" y="278" type="line"/>
      <point x="115" y="290" type="line"/>
      <point x="309" y="486" type="line"/>
      <point x="241" y="486" type="line"/>
      <point x="58" y="311" type="line"/>
      <point x="50" y="269" type="line"/>
    </contour>
  </outline>
</glyph>
<glyph name="fraction" format="1">
  <advance width="34"/>
  <unicode hex="2044"/>
  <note>
fraction
</note>
  <outline>
    <contour>
      <point x="-283" y="0" type="line"/>
      <point x="-219" y="0" type="line"/>
      <point x="13" y="322" type="line"/>
      <point x="-52" y="322" type="line"/>
    </contour>
    <contour>
      <point x="47" y="368" type="line"/>
      <point x="112" y="368" type="line"/>
      <point x="344" y="690" type="line"/>
      <point x="279" y="690" type="line"/>
    </contour>
  </outline>
</glyph>
<glyph name="trademark" format="1">
  <advance width="911"/>
  <unicode hex="2122"/>
  <outline>
    <contour>
      <point x="182" y="304" type="line"/>
      <point x="238" y="304" type="line"/>
      <point x="295" y="648" type="line"/>
      <point x="378" y="648" type="line"/>
      <point x="364" y="566" type="line"/>
      <point x="412" y="566" type="line"/>
      <point x="433" y="690" type="line"/>
      <point x="117" y="690" type="line"/>
      <point x="96" y="566" type="line"/>
      <point x="143" y="566" type="line"/>
      <point x="157" y="648" type="line"/>
      <point x="239" y="648" type="line"/>
    </contour>
    <contour>
      <point x="426" y="304" type="line"/>
      <point x="481" y="304" type="line"/>
      <point x="539" y="643" type="line"/>
      <point x="554" y="643" type="line"/>
      <point x="606" y="304" type="line"/>
      <point x="657" y="304" type="line"/>
      <point x="823" y="643" type="line"/>
      <point x="839" y="643" type="line"/>
      <point x="781" y="304" type="line"/>
      <point x="838" y="304" type="line"/>
      <point x="903" y="690" type="line"/>
      <point x="796" y="690" type="line"/>
      <point x="655" y="409" type="line"/>
      <point x="641" y="409" type="line"/>
      <point x="595" y="690" type="line"/>
      <point x="491" y="690" type="line"/>
    </contour>
  </outline>
</glyph>
<glyph name="Ohm" format="1">
  <advance width="702"/>
  <unicode hex="2126"/>
  <outline>
    <contour>
      <point x="26" y="0" type="line"/>
      <point x="233" y="0" type="line"/>
      <point x="246" y="77" type="line"/>
      <point x="181" y="139"/>
      <point x="125" y="221"/>
      <point x="147" y="348" type="curve" smooth="yes"/>
      <point x="155" y="397" type="line" smooth="yes"/>
      <point x="182" y="559"/>
      <point x="277" y="643"/>
      <point x="401" y="643" type="curve" smooth="yes"/>
      <point x="526" y="643"/>
      <point x="616" y="553"/>
      <point x="589" y="391" type="curve" smooth="yes"/>
      <point x="581" y="343" type="line" smooth="yes"/>
      <point x="560" y="215"/>
      <point x="476" y="133"/>
      <point x="391" y="77" type="curve"/>
      <point x="378" y="0" type="line"/>
      <point x="586" y="0" type="line"/>
      <point x="595" y="57" type="line"/>
      <point x="448" y="57" type="line"/>
      <point x="451" y="78" type="line"/>
      <point x="535" y="120"/>
      <point x="628" y="208"/>
      <point x="652" y="353" type="curve" smooth="yes"/>
      <point x="685" y="560"/>
      <point x="579" y="700"/>
      <point x="407" y="700" type="curve" smooth="yes"/>
      <point x="251" y="700"/>
      <point x="116" y="582"/>
      <point x="85" y="387" type="curve" smooth="yes"/>
      <point x="61" y="241"/>
      <point x="117" y="125"/>
      <point x="187" y="78" type="curve"/>
      <point x="183" y="57" type="line"/>
      <point x="35" y="57" type="line"/>
    </contour>
  </outline>
</glyph>
<glyph name="partialdiff" format="1">
  <advance width="579"/>
  <unicode hex="2202"/>
  <outline>
    <contour>
      <point x="265" y="-10" type="curve" smooth="yes"/>
      <point x="400" y="-10"/>
      <point x="489" y="76"/>
      <point x="518" y="246" type="curve" smooth="yes"/>
      <point x="557" y="477"/>
      <point x="468" y="653"/>
      <point x="233" y="700" type="curve"/>
      <point x="223" y="644" type="line"/>
      <point x="387" y="616"/>
      <point x="454" y="515"/>
      <point x="470" y="429" type="curve"/>
      <point x="448" y="429" type="line"/>
      <point x="422" y="483"/>
      <point x="350" y="504"/>
      <point x="291" y="504" type="curve" smooth="yes"/>
      <point x="168" y="504"/>
      <point x="82" y="420"/>
      <point x="55" y="261" type="curve" smooth="yes"/>
      <point x="26" y="83"/>
      <point x="116" y="-10"/>
    </contour>
    <contour>
      <point x="268" y="45" type="curve" smooth="yes"/>
      <point x="153" y="45"/>
      <point x="96" y="107"/>
      <point x="116" y="232" type="curve" smooth="yes"/>
      <point x="122" y="268" type="line" smooth="yes"/>
      <point x="143" y="393"/>
      <point x="194" y="449"/>
      <point x="308" y="449" type="curve" smooth="yes"/>
      <point x="421" y="449"/>
      <point x="476" y="386"/>
      <point x="456" y="262" type="curve" smooth="yes"/>
      <point x="450" y="227" type="line" smooth="yes"/>
      <point x="429" y="101"/>
      <point x="379" y="45"/>
    </contour>
  </outline>
</glyph>
<glyph name="increment" format="1">
  <advance width="619"/>
  <unicode hex="2206"/>
  <outline>
    <contour>
      <point x="-2" y="0" type="line"/>
      <point x="530" y="0" type="line"/>
      <point x="539" y="53" type="line"/>
      <point x="437" y="690" type="line"/>
      <point x="323" y="690" type="line"/>
      <point x="7" y="53" type="line"/>
    </contour>
    <contour>
      <point x="77" y="53" type="line"/>
      <point x="362" y="633" type="line"/>
      <point x="383" y="633" type="line"/>
      <point x="474" y="53" type="line"/>
    </contour>
  </outline>
</glyph>
<glyph name="summation" format="1">
  <advance width="572"/>
  <unicode hex="2211"/>
  <outline>
    <contour>
      <point x="5" y="0" type="line"/>
      <point x="482" y="0" type="line"/>
      <point x="491" y="53" type="line"/>
      <point x="88" y="53" type="line"/>
      <point x="359" y="345" type="line"/>
      <point x="185" y="637" type="line"/>
      <point x="572" y="637" type="line"/>
      <point x="581" y="690" type="line"/>
      <point x="124" y="690" type="line"/>
      <point x="115" y="637" type="line"/>
      <point x="289" y="348" type="line"/>
      <point x="14" y="53" type="line"/>
    </contour>
  </outline>
</glyph>
<glyph name="divisionslash" format="1">
  <advance width="474"/>
  <unicode hex="2215"/>
  <outline>
    <contour>
      <point x="-10" y="0" type="line"/>
      <point x="54" y="0" type="line"/>
      <point x="510" y="690" type="line"/>
      <point x="447" y="690" type="line"/>
    </contour>
  </outline>
</glyph>
<glyph name="lessequal" format="1">
  <advance width="474"/>
  <unicode hex="2264"/>
  <outline>
    <contour>
      <point x="415" y="173" type="line"/>
      <point x="424" y="226" type="line"/>
      <point x="108" y="359" type="line"/>
      <point x="112" y="380" type="line"/>
      <point x="472" y="513" type="line"/>
      <point x="482" y="571" type="line"/>
      <point x="61" y="410" type="line"/>
      <point x="48" y="334" type="line"/>
    </contour>
    <contour>
      <point x="-4" y="24" type="line"/>
      <point x="391" y="24" type="line"/>
      <point x="399" y="75" type="line"/>
      <point x="5" y="75" type="line"/>
    </contour>
  </outline>
</glyph>
<glyph name="Adieresis.ss03" format="1">
  <advance width="625"/>
  <outline>
    <component base="A.ss03"/>
    <component base="dieresiscomb.case" xOffset="118" yOffset="40"/>
    <contour>
      <point x="548" y="0" type="move" name="ogonek"/>
    </contour>
    <contour>
      <point x="382" y="690" type="move" name="top"/>
    </contour>
  </outline>
</glyph>
<glyph name="B.ss03" format="1">
  <advance width="626"/>
  <outline>
    <contour>
      <point x="57" y="0" type="line"/>
      <point x="348" y="0" type="line" smooth="yes"/>
      <point x="462" y="0"/>
      <point x="527" y="56"/>
      <point x="547" y="177" type="curve" smooth="yes"/>
      <point x="562" y="269"/>
      <point x="533" y="328"/>
      <point x="460" y="338" type="curve"/>
      <point x="464" y="359" type="line"/>
      <point x="538" y="369"/>
      <point x="580" y="406"/>
      <point x="594" y="494" type="curve" smooth="yes"/>
      <point x="613" y="611"/>
      <point x="552" y="690"/>
      <point x="441" y="690" type="curve"/>
      <point x="173" y="690" type="line"/>
    </contour>
    <contour>
      <point x="349" y="53" type="curve" smooth="yes"/>
      <point x="129" y="53" type="line"/>
      <point x="175" y="327" type="line"/>
      <point x="379" y="327" type="line" smooth="yes"/>
      <point x="458" y="327"/>
      <point x="499" y="282"/>
      <point x="486" y="204" type="curve" smooth="yes"/>
      <point x="480" y="170" type="line" smooth="yes"/>
      <point x="467" y="92"/>
      <point x="428" y="53"/>
    </contour>
    <contour>
      <point x="402" y="377" type="curve" smooth="yes"/>
      <point x="184" y="377" type="line"/>
      <point x="227" y="637" type="line"/>
      <point x="429" y="637" type="line" smooth="yes"/>
      <point x="504" y="637"/>
      <point x="544" y="594"/>
      <point x="532" y="518" type="curve" smooth="yes"/>
      <point x="526" y="488" type="line" smooth="yes"/>
      <point x="514" y="415"/>
      <point x="477" y="377"/>
    </contour>
  </outline>
</glyph>
<glyph name="F.ss03" format="1">
  <advance width="578"/>
  <outline>
    <contour>
      <point x="55" y="0" type="line"/>
      <point x="119" y="0" type="line"/>
      <point x="174" y="327" type="line"/>
      <point x="443" y="327" type="line"/>
      <point x="452" y="377" type="line"/>
      <point x="182" y="377" type="line"/>
      <point x="226" y="637" type="line"/>
      <point x="537" y="637" type="line"/>
      <point x="513" y="494" type="line"/>
      <point x="569" y="494" type="line"/>
      <point x="602" y="690" type="line"/>
      <point x="171" y="690" type="line"/>
    </contour>
  </outline>
</glyph>
<glyph name="K.ss03" format="1">
  <advance width="632"/>
  <outline>
    <contour>
      <point x="58" y="0" type="line"/>
      <point x="122" y="0" type="line"/>
      <point x="177" y="329" type="line"/>
      <point x="269" y="329" type="line"/>
      <point x="446" y="0" type="line"/>
      <point x="576" y="0" type="line"/>
      <point x="585" y="53" type="line"/>
      <point x="493" y="53" type="line"/>
      <point x="313" y="383" type="line"/>
      <point x="317" y="336" type="line"/>
      <point x="666" y="690" type="line"/>
      <point x="581" y="690" type="line"/>
      <point x="277" y="379" type="line"/>
      <point x="186" y="379" type="line"/>
      <point x="238" y="690" type="line"/>
      <point x="174" y="690" type="line"/>
    </contour>
  </outline>
</glyph>
<glyph name="M.ss04" format="1">
  <advance width="899"/>
  <outline>
    <contour>
      <point x="64" y="0" type="line"/>
      <point x="126" y="0" type="line"/>
      <point x="232" y="633" type="line"/>
      <point x="254" y="633" type="line"/>
      <point x="380" y="0" type="line"/>
      <point x="436" y="0" type="line"/>
      <point x="774" y="633" type="line"/>
      <point x="796" y="633" type="line"/>
      <point x="690" y="0" type="line"/>
      <point x="753" y="0" type="line"/>
      <point x="869" y="690" type="line"/>
      <point x="741" y="690" type="line"/>
      <point x="439" y="129" type="line"/>
      <point x="417" y="129" type="line"/>
      <point x="303" y="690" type="line"/>
      <point x="180" y="690" type="line"/>
    </contour>
    <contour>
      <point x="193" y="637" type="line"/>
      <point x="202" y="690" type="line"/>
      <point x="89" y="690" type="line"/>
      <point x="80" y="637" type="line"/>
    </contour>
  </outline>
</glyph>
<glyph name="N.ss03" format="1">
  <advance width="677"/>
  <outline>
    <contour>
      <point x="56" y="0" type="line"/>
      <point x="118" y="0" type="line"/>
      <point x="201" y="492" type="line" smooth="yes"/>
      <point x="206" y="523"/>
      <point x="208" y="555"/>
      <point x="212" y="618" type="curve"/>
      <point x="233" y="618" type="line"/>
      <point x="478" y="0" type="line"/>
      <point x="531" y="0" type="line"/>
      <point x="647" y="690" type="line"/>
      <point x="585" y="690" type="line"/>
      <point x="517" y="283" type="line" smooth="yes"/>
      <point x="512" y="252"/>
      <point x="510" y="220"/>
      <point x="506" y="157" type="curve"/>
      <point x="484" y="157" type="line"/>
      <point x="265" y="690" type="line"/>
      <point x="172" y="690" type="line"/>
    </contour>
    <contour>
      <point x="410" y="690" type="move" name="top"/>
    </contour>
  </outline>
</glyph>
<glyph name="R.ss03" format="1">
  <advance width="646"/>
  <outline>
    <contour>
      <point x="56" y="0" type="line"/>
      <point x="120" y="0" type="line"/>
      <point x="173" y="320" type="line"/>
      <point x="355" y="320" type="line" smooth="yes"/>
      <point x="433" y="320"/>
      <point x="474" y="275"/>
      <point x="460" y="194" type="curve" smooth="yes"/>
      <point x="428" y="0" type="line"/>
      <point x="580" y="0" type="line"/>
      <point x="589" y="53" type="line"/>
      <point x="500" y="53" type="line"/>
      <point x="522" y="180" type="line" smooth="yes"/>
      <point x="536" y="263"/>
      <point x="512" y="320"/>
      <point x="451" y="329" type="curve"/>
      <point x="455" y="351" type="line"/>
      <point x="537" y="362"/>
      <point x="581" y="400"/>
      <point x="596" y="491" type="curve" smooth="yes"/>
      <point x="616" y="610"/>
      <point x="554" y="690"/>
      <point x="441" y="690" type="curve"/>
      <point x="172" y="690" type="line"/>
    </contour>
    <contour>
      <point x="401" y="370" type="curve" smooth="yes"/>
      <point x="182" y="370" type="line"/>
      <point x="227" y="637" type="line"/>
      <point x="429" y="637" type="line" smooth="yes"/>
      <point x="507" y="637"/>
      <point x="548" y="593"/>
      <point x="535" y="516" type="curve" smooth="yes"/>
      <point x="530" y="485" type="line" smooth="yes"/>
      <point x="517" y="410"/>
      <point x="479" y="370"/>
    </contour>
  </outline>
</glyph>
<glyph name="U.ss03" format="1">
  <advance width="684"/>
  <outline>
    <contour>
      <point x="279" y="-10" type="curve" smooth="yes"/>
      <point x="375" y="-10"/>
      <point x="430" y="23"/>
      <point x="472" y="94" type="curve"/>
      <point x="493" y="94" type="line"/>
      <point x="486" y="50" type="line" smooth="yes"/>
      <point x="480" y="18"/>
      <point x="495" y="0"/>
      <point x="528" y="0" type="curve" smooth="yes"/>
      <point x="620" y="0" type="line"/>
      <point x="629" y="53" type="line"/>
      <point x="538" y="53" type="line"/>
      <point x="645" y="690" type="line"/>
      <point x="581" y="690" type="line"/>
      <point x="506" y="244" type="line" smooth="yes"/>
      <point x="483" y="108"/>
      <point x="425" y="47"/>
      <point x="304" y="47" type="curve" smooth="yes"/>
      <point x="182" y="47"/>
      <point x="131" y="108"/>
      <point x="155" y="248" type="curve" smooth="yes"/>
      <point x="229" y="690" type="line"/>
      <point x="165" y="690" type="line"/>
      <point x="89" y="234" type="line" smooth="yes"/>
      <point x="63" y="76"/>
      <point x="138" y="-10"/>
    </contour>
    <contour>
      <point x="405" y="690" type="move" name="top"/>
    </contour>
  </outline>
</glyph>
<glyph name=".notdef" format="1">
  <advance width="664"/>
  <outline>
    <contour>
      <point x="63" y="0" type="line"/>
      <point x="511" y="0" type="line"/>
      <point x="627" y="690" type="line"/>
      <point x="179" y="690" type="line"/>
    </contour>
    <contour>
      <point x="126" y="51" type="line"/>
      <point x="224" y="639" type="line"/>
      <point x="564" y="639" type="line"/>
      <point x="466" y="51" type="line"/>
    </contour>
  </outline>
</glyph>
<glyph name="dieresiscomb.narrow" format="1">
  <advance width="0"/>
  <outline>
    <contour>
      <point x="144" y="615" type="line"/>
      <point x="224" y="615" type="line"/>
      <point x="237" y="690" type="line"/>
      <point x="156" y="690" type="line"/>
    </contour>
    <contour>
      <point x="293" y="615" type="line"/>
      <point x="373" y="615" type="line"/>
      <point x="386" y="690" type="line"/>
      <point x="305" y="690" type="line"/>
    </contour>
    <contour>
      <point x="245" y="534" type="move" name="_top"/>
    </contour>
  </outline>
</glyph>
<glyph name="f_b" format="1">
  <advance width="973"/>
  <outline>
    <contour>
      <point x="202" y="647" type="curve" smooth="yes"/>
      <point x="93" y="0" type="line"/>
      <point x="154" y="0" type="line"/>
      <point x="261" y="639" type="line"/>
      <point x="411" y="639" type="line"/>
      <point x="420" y="690" type="line"/>
      <point x="251" y="690" type="line" smooth="yes"/>
      <point x="224" y="690"/>
      <point x="206" y="675"/>
    </contour>
    <contour>
      <point x="-6" y="0" type="line"/>
      <point x="289" y="0" type="line"/>
      <point x="298" y="51" type="line"/>
      <point x="3" y="51" type="line"/>
    </contour>
    <contour>
      <point x="69" y="483" type="line"/>
      <point x="385" y="483" type="line"/>
      <point x="394" y="534" type="line"/>
      <point x="77" y="534" type="line"/>
    </contour>
    <contour>
      <point x="673" y="-10" type="curve" smooth="yes"/>
      <point x="803" y="-10"/>
      <point x="885" y="74"/>
      <point x="916" y="253" type="curve" smooth="yes"/>
      <point x="946" y="433"/>
      <point x="875" y="544"/>
      <point x="733" y="544" type="curve" smooth="yes"/>
      <point x="659" y="544"/>
      <point x="610" y="513"/>
      <point x="569" y="445" type="curve"/>
      <point x="547" y="445" type="line"/>
      <point x="564" y="508"/>
      <point x="573" y="540"/>
      <point x="578" y="571" type="curve" smooth="yes"/>
      <point x="598" y="690" type="line"/>
      <point x="458" y="690" type="line"/>
      <point x="449" y="639" type="line"/>
      <point x="528" y="639" type="line"/>
      <point x="421" y="0" type="line"/>
      <point x="470" y="0" type="line"/>
      <point x="487" y="93" type="line"/>
      <point x="508" y="93" type="line"/>
      <point x="540" y="22"/>
      <point x="593" y="-10"/>
    </contour>
    <contour>
      <point x="663" y="45" type="curve" smooth="yes"/>
      <point x="552" y="45"/>
      <point x="501" y="110"/>
      <point x="524" y="245" type="curve" smooth="yes"/>
      <point x="532" y="295" type="line" smooth="yes"/>
      <point x="555" y="429"/>
      <point x="604" y="489"/>
      <point x="716" y="489" type="curve" smooth="yes"/>
      <point x="827" y="489"/>
      <point x="878" y="424"/>
      <point x="855" y="289" type="curve" smooth="yes"/>
      <point x="847" y="239" type="line" smooth="yes"/>
      <point x="824" y="105"/>
      <point x="775" y="45"/>
    </contour>
    <contour>
      <point x="382" y="690" type="line"/>
      <point x="373" y="639" type="line"/>
      <point x="495" y="639" type="line"/>
      <point x="504" y="690" type="line"/>
    </contour>
  </outline>
</glyph>
<glyph name="f_f_j" format="1">
  <advance width="1025"/>
  <outline>
    <contour>
      <point x="202" y="647" type="curve" smooth="yes"/>
      <point x="93" y="0" type="line"/>
      <point x="154" y="0" type="line"/>
      <point x="261" y="639" type="line"/>
      <point x="411" y="639" type="line"/>
      <point x="420" y="690" type="line"/>
      <point x="251" y="690" type="line" smooth="yes"/>
      <point x="224" y="690"/>
      <point x="206" y="675"/>
    </contour>
    <contour>
      <point x="-6" y="0" type="line"/>
      <point x="289" y="0" type="line"/>
      <point x="298" y="51" type="line"/>
      <point x="3" y="51" type="line"/>
    </contour>
    <contour>
      <point x="69" y="483" type="line"/>
      <point x="385" y="483" type="line"/>
      <point x="394" y="534" type="line"/>
      <point x="77" y="534" type="line"/>
    </contour>
    <contour>
      <point x="579" y="647" type="curve" smooth="yes"/>
      <point x="470" y="0" type="line"/>
      <point x="531" y="0" type="line"/>
      <point x="638" y="639" type="line"/>
      <point x="788" y="639" type="line"/>
      <point x="797" y="690" type="line"/>
      <point x="628" y="690" type="line" smooth="yes"/>
      <point x="601" y="690"/>
      <point x="583" y="675"/>
    </contour>
    <contour>
      <point x="371" y="0" type="line"/>
      <point x="666" y="0" type="line"/>
      <point x="675" y="51" type="line"/>
      <point x="380" y="51" type="line"/>
    </contour>
    <contour>
      <point x="446" y="483" type="line"/>
      <point x="762" y="483" type="line"/>
      <point x="771" y="534" type="line"/>
      <point x="454" y="534" type="line"/>
    </contour>
    <contour>
      <point x="703" y="-132" type="line"/>
      <point x="823" y="-132" type="line" smooth="yes"/>
      <point x="851" y="-132"/>
      <point x="868" y="-117"/>
      <point x="873" y="-89" type="curve" smooth="yes"/>
      <point x="978" y="534" type="line"/>
      <point x="822" y="534" type="line"/>
      <point x="813" y="483" type="line"/>
      <point x="908" y="483" type="line"/>
      <point x="813" y="-81" type="line"/>
      <point x="712" y="-81" type="line"/>
    </contour>
    <contour>
      <point x="918" y="615" type="line"/>
      <point x="999" y="615" type="line"/>
      <point x="1011" y="690" type="line"/>
      <point x="931" y="690" type="line"/>
    </contour>
    <contour>
      <point x="737" y="534" type="line"/>
      <point x="729" y="483" type="line"/>
      <point x="836" y="483" type="line"/>
      <point x="845" y="534" type="line"/>
    </contour>
    <contour>
      <point x="297" y="483" type="line"/>
      <point x="499" y="483" type="line"/>
      <point x="507" y="534" type="line"/>
      <point x="306" y="534" type="line"/>
    </contour>
  </outline>
</glyph>
<glyph name="f_h" format="1">
  <advance width="966"/>
  <outline>
    <contour>
      <point x="202" y="647" type="curve" smooth="yes"/>
      <point x="93" y="0" type="line"/>
      <point x="154" y="0" type="line"/>
      <point x="261" y="639" type="line"/>
      <point x="411" y="639" type="line"/>
      <point x="420" y="690" type="line"/>
      <point x="251" y="690" type="line" smooth="yes"/>
      <point x="224" y="690"/>
      <point x="206" y="675"/>
    </contour>
    <contour>
      <point x="-6" y="0" type="line"/>
      <point x="289" y="0" type="line"/>
      <point x="298" y="51" type="line"/>
      <point x="3" y="51" type="line"/>
    </contour>
    <contour>
      <point x="69" y="483" type="line"/>
      <point x="385" y="483" type="line"/>
      <point x="394" y="534" type="line"/>
      <point x="77" y="534" type="line"/>
    </contour>
    <contour>
      <point x="420" y="0" type="line"/>
      <point x="482" y="0" type="line"/>
      <point x="537" y="328" type="line" smooth="yes"/>
      <point x="556" y="438"/>
      <point x="600" y="489"/>
      <point x="697" y="489" type="curve" smooth="yes"/>
      <point x="794" y="489"/>
      <point x="836" y="438"/>
      <point x="816" y="324" type="curve" smooth="yes"/>
      <point x="762" y="0" type="line"/>
      <point x="902" y="0" type="line"/>
      <point x="911" y="51" type="line"/>
      <point x="832" y="51" type="line"/>
      <point x="880" y="336" type="line" smooth="yes"/>
      <point x="902" y="471"/>
      <point x="838" y="544"/>
      <point x="722" y="544" type="curve" smooth="yes"/>
      <point x="649" y="544"/>
      <point x="603" y="515"/>
      <point x="570" y="457" type="curve"/>
      <point x="549" y="457" type="line"/>
      <point x="566" y="520"/>
      <point x="575" y="552"/>
      <point x="580" y="583" type="curve" smooth="yes"/>
      <point x="598" y="690" type="line"/>
      <point x="457" y="690" type="line"/>
      <point x="448" y="639" type="line"/>
      <point x="527" y="639" type="line"/>
    </contour>
    <contour>
      <point x="382" y="690" type="line"/>
      <point x="373" y="639" type="line"/>
      <point x="493" y="639" type="line"/>
      <point x="502" y="690" type="line"/>
    </contour>
  </outline>
</glyph>
<glyph name="j_acutecomb" format="1">
  <advance width="272"/>
  <outline>
    <component base="jdotless"/>
    <component base="acutecomb" xOffset="-53"/>
    <contour>
      <point x="192" y="534" type="move" name="top"/>
    </contour>
  </outline>
</glyph>
<glyph name="periodcentered.loclCAT" format="1">
  <advance width="153"/>
  <outline>
    <contour>
      <point x="44" y="304" type="line"/>
      <point x="122" y="304" type="line"/>
      <point x="134" y="380" type="line"/>
      <point x="56" y="380" type="line"/>
    </contour>
  </outline>
</glyph>
<glyph name="zero.zero" format="1">
  <advance width="660"/>
  <outline>
    <contour>
      <point x="307" y="-10" type="curve" smooth="yes"/>
      <point x="468" y="-10"/>
      <point x="567" y="93"/>
      <point x="606" y="330" type="curve" smooth="yes"/>
      <point x="647" y="577"/>
      <point x="574" y="700"/>
      <point x="379" y="700" type="curve" smooth="yes"/>
      <point x="219" y="700"/>
      <point x="119" y="597"/>
      <point x="80" y="360" type="curve" smooth="yes"/>
      <point x="38" y="111"/>
      <point x="115" y="-10"/>
    </contour>
    <contour>
      <point x="306" y="47" type="curve" smooth="yes"/>
      <point x="171" y="47"/>
      <point x="109" y="124"/>
      <point x="136" y="286" type="curve" smooth="yes"/>
      <point x="156" y="409" type="line" smooth="yes"/>
      <point x="184" y="572"/>
      <point x="246" y="643"/>
      <point x="381" y="643" type="curve" smooth="yes"/>
      <point x="515" y="643"/>
      <point x="578" y="566"/>
      <point x="551" y="404" type="curve" smooth="yes"/>
      <point x="530" y="281" type="line" smooth="yes"/>
      <point x="502" y="118"/>
      <point x="440" y="47"/>
    </contour>
  </outline>
</glyph>
